<?xml version="1.0" encoding="UTF-8" standalone="no"?>
<!-- Created with Inkscape (http://www.inkscape.org/) -->

<svg
   width="96.711189mm"
   height="96.258255mm"
   viewBox="0 0 96.711189 96.258255"
   version="1.1"
   id="svg10928"
   inkscape:version="1.2.2 (b0a8486541, 2022-12-01)"
   sodipodi:docname="kanji.svg"
   xmlns:inkscape="http://www.inkscape.org/namespaces/inkscape"
   xmlns:sodipodi="http://sodipodi.sourceforge.net/DTD/sodipodi-0.dtd"
   xmlns="http://www.w3.org/2000/svg"
   xmlns:svg="http://www.w3.org/2000/svg">
  <sodipodi:namedview
     id="namedview10930"
     pagecolor="#ffffff"
     bordercolor="#000000"
     borderopacity="0.25"
     inkscape:showpageshadow="2"
     inkscape:pageopacity="0.0"
     inkscape:pagecheckerboard="0"
     inkscape:deskcolor="#d1d1d1"
     inkscape:document-units="mm"
     showgrid="false"
     inkscape:zoom="0.79909512"
     inkscape:cx="165.81255"
     inkscape:cy="155.17552"
     inkscape:window-width="1920"
     inkscape:window-height="1053"
     inkscape:window-x="0"
     inkscape:window-y="0"
     inkscape:window-maximized="1"
     inkscape:current-layer="layer1" />
  <defs
     id="defs10925" />
  <g
     inkscape:label="Layer 1"
     inkscape:groupmode="layer"
     id="layer1"
     transform="translate(-51.969814,-107.68458)">
    <g
       id="g10860"
       transform="translate(41.056937,92.373577)">
      <path
         style="fill:#000000;stroke-width:7.19407"
         d="m 73.017124,77.43444 -0.002,-10.58125 -0.1331,0.1669 c -0.0733,0.0921 -0.4302,0.56761 -0.79292,1.05674 -1.51154,2.03894 -3.43495,4.19773 -6.71531,7.53701 -0.88709,0.903 -2.05715,2.09599 -2.60015,2.65101 l -0.98717,1.00919 v -3.34819 -3.34826 l 1.56536,-1.66637 c 4.20637,-4.4781 6.32934,-7.0315 7.7547,-9.3272 0.16619,-0.26762 0.30216,-0.49855 0.30216,-0.51437 0,-0.0144 -2.33952,-0.0287 -5.19902,-0.0287 h -5.19902 l -0.0216,10.69257 c -0.0144,10.63226 -0.0216,10.69549 -0.134517,11.22088 -0.545317,2.46022 -1.969881,4.11363 -3.733941,4.33284 -0.610772,0.0755 -4.96384,-0.0921 -5.06728,-0.19567 -0.01436,-0.0144 -0.02884,-0.52015 -0.02884,-1.12308 -0.0012,-0.98156 0.01436,-1.14169 0.125898,-1.53744 0.371217,-1.28141 1.223279,-2.207 2.224982,-2.41656 0.189205,-0.036 0.581282,-0.0504 1.094359,-0.0216 0.950914,0.0432 1.089692,0.007 1.220615,-0.32086 0.07702,-0.1928 0.0871,-0.76207 0.0871,-4.77801 v -4.55954 h -2.416852 -2.41684 l -0.02873,0.18058 c -0.01436,0.0993 -0.06474,0.64388 -0.114432,1.20968 -0.279128,3.25747 -1.063284,6.44768 -2.296629,9.3433 -0.758407,1.78054 -1.237606,2.40779 -2.18463,2.85928 -0.344591,0.16475 -0.394231,0.17265 -1.059612,0.17265 h -0.697823 l -0.435244,-0.2151 c -0.54531,-0.26977 -1.075516,-0.78113 -1.44831,-1.39788 -0.148204,-0.24458 -0.269064,-0.46977 -0.269064,-0.50071 0,-0.0287 0.238847,-0.41869 0.530925,-0.86285 0.674808,-1.02608 1.298818,-2.14268 1.770674,-3.16941 1.262995,-2.7485 1.773059,-5.09729 2.053266,-9.45502 0.154667,-2.40534 0.179128,-3.90784 0.205744,-12.69483 l 0.02884,-9.32985 H 44.211036 40.42336 v 1.0289 1.02898 h 2.530577 2.530588 v 10.31709 10.31709 h -2.03002 -2.030022 v -0.6676 -0.66761 h -0.500881 -0.500706 v 1.44233 1.44235 l 1.654632,0.0215 c 1.571045,0.0144 1.670685,0.0287 1.97298,0.14604 0.910261,0.36403 1.601539,1.22048 1.969515,2.43988 0.12877,0.42733 0.151076,0.61437 0.173372,1.47643 l 0.02884,0.98725 h -2.898274 -2.898344 v 4.08788 4.08797 h -2.113195 -2.11311 l -0.01436,-4.07402 -0.01436,-4.07399 -3.275237,-0.0144 -3.275248,-0.0144 0.02884,-0.9312 c 0.03601,-1.10874 0.138116,-1.56946 0.521565,-2.34936 0.433797,-0.88365 1.185371,-1.53933 1.972689,-1.72083 0.138847,-0.0287 1.067744,-0.0576 2.149003,-0.0576 l 1.904923,-0.001 v -1.44608 -1.44607 h -0.52804 -0.528052 v 0.6676 0.66762 H 33.084248 31.026384 V 60.85154 50.53444 h 2.586275 2.586194 v -1.02847 -1.02846 l -3.156323,-0.0144 -3.156255,-0.0144 0.0058,-0.80645 c 0.007,-1.27494 0.235244,-2.13888 0.767755,-2.9403 0.453231,-0.68127 1.123431,-1.15897 1.806219,-1.28637 0.164745,-0.0287 1.068311,-0.0576 2.007794,-0.0576 h 1.708224 l 0.03603,-0.59781 c 0.07192,-1.27939 0.512937,-2.37815 1.261547,-3.13381 0.680565,-0.68631 1.205014,-0.88459 2.344984,-0.88459 h 0.604298 v 2.30816 2.30813 h 10.289249 10.289319 v 6.17381 6.1738 l 5.99281,-0.0144 5.99281,-0.0144 0.0144,-3.46222 0.0144,-3.46215 h -5.61777 -5.61778 v -2.6972 -2.69721 l 5.60347,-0.0144 5.60345,-0.0144 0.0144,-2.30138 0.0144,-2.30131 0.76414,0.0288 c 0.61581,0.0215 0.8289,0.0504 1.09783,0.15467 1.31427,0.5007 2.20836,1.88867 2.41785,3.75365 0.0287,0.27553 0.0576,0.54386 0.0576,0.59637 5.8e-4,0.09 0.27913,0.0972 4.46802,0.11154 l 4.4676,0.0144 0.48416,0.24028 c 1.12486,0.55754 1.91168,1.6645 2.24074,3.15274 0.0504,0.21438 0.0993,0.74601 0.11582,1.18189 l 0.0288,0.79258 h -5.9031 -5.90317 v 3.47611 3.4761 h 5.34103 c 5.24297,0 5.34728,0.002 5.68066,0.11444 0.78544,0.26474 1.4455,0.8971 1.88298,1.80441 0.39279,0.81437 0.5007,1.30867 0.53955,2.4611 l 0.0287,0.95939 h -5.98697 c -3.29288,0 -5.98699,0.0216 -5.98699,0.0504 0,0.0287 0.14389,0.27626 0.31943,0.55611 1.40773,2.23908 3.7735,5.00285 7.02962,8.21226 1.3165,1.29759 3.77847,3.60207 4.05578,3.7963 0.10438,0.0726 0.10798,0.17411 0.10798,3.24712 0,1.9683 -0.0216,3.16468 -0.0504,3.15316 -0.14892,-0.0504 -2.83735,-2.55619 -5.34232,-4.9752 -2.99073,-2.88813 -5.58361,-5.63029 -7.11055,-7.51989 l -0.50934,-0.63021 -5.7e-4,8.44427 c -5.8e-4,9.0556 0.002,8.97288 -0.28057,9.89026 -0.42877,1.39321 -1.43926,2.46204 -2.54461,2.69181 -0.16188,0.0359 -0.56906,0.0576 -0.90381,0.0576 h -0.60933 l -0.003,-10.58126 z M 57.169088,63.79419 v -3.86545 h -2.671437 c -2.088592,0 -2.67606,0.0144 -2.692819,0.0719 -0.01436,0.0359 -0.03601,1.77765 -0.05038,3.86543 l -0.02873,3.7959 h 2.723812 2.723755 z m -15.363583,-0.0432 0.01436,-1.54341 H 38.259453 34.69903 v 1.52024 c 0,0.83611 0.01436,1.5371 0.03601,1.55768 0.02154,0.0215 1.616214,0.0287 3.545668,0.0215 l 3.508118,-0.0144 z m 0,-7.14688 -0.01436,-1.54341 h -3.531716 -3.531723 l -0.01436,1.54341 -0.01437,1.54334 h 3.561282 3.56128 z M 57.169088,51.8899 v -3.75472 l -2.683598,0.0144 -2.68353,0.0144 -0.01436,3.74034 -0.01436,3.74027 h 2.697927 2.697845 z"
         id="path1936-3"
         sodipodi:nodetypes="ccccscccccsssccccsccccsscccccscscccsccscccccccccccccccccccccccccccccccccccccccccccccccccccccccccscccscccccccccccccccccccccccccccccccccsccccsscscscsccsccscccccsccccccccccscccccccccccccccccccccc" />
      <g
         aria-label="asami.club 路 certified member 路 asami.club 路 certified member 路"
         id="text465"
         style="font-size:9.525px;stroke-width:0.264583"
         transform="translate(-39.068476,-147.03095)">
        <path
           d="m 116.75403,247.99462 -1.24929,0.64275 1.78883,3.47683 1.26199,-0.6493 -0.26364,-0.51242 c 0.23418,0.17409 0.84106,0.34388 1.5017,0.004 1.01213,-0.52074 1.27125,-1.6931 0.74614,-2.7137 -0.5251,-1.0206 -1.62742,-1.48713 -2.63956,-0.96639 -0.68604,0.35297 -0.87167,1.0644 -0.85421,1.28572 z m 2.54069,0.88872 c 0.25056,0.48701 0.0631,1.03871 -0.3858,1.26967 -0.4743,0.24403 -0.99842,0.0477 -1.24463,-0.43082 -0.24838,-0.48277 -0.099,-1.01486 0.37527,-1.25889 0.4489,-0.23096 1.00241,-0.0712 1.25516,0.42004 z"
           style="font-weight:bold;font-family:'League Spartan';-inkscape-font-specification:'League Spartan Bold'"
           id="path900" />
        <path
           d="m 114.43814,253.37131 c 0.85056,-0.32245 1.4959,-0.98475 1.2224,-1.70617 -0.28869,-0.7615 -1.06856,-0.77653 -1.58389,-0.69832 -0.41951,0.0623 -0.6982,0.0661 -0.77923,-0.1477 -0.0743,-0.19594 0.10556,-0.40673 0.48408,-0.55023 0.39634,-0.15025 0.86312,-0.0878 1.06963,-0.0133 l 0.0949,-1.03936 c -0.19254,-0.0645 -0.80825,-0.15707 -1.64101,0.15863 -0.79712,0.3022 -1.70456,0.93144 -1.31964,1.94677 0.28532,0.7526 1.02834,0.75104 1.60939,0.65809 0.44622,-0.0724 0.71217,-0.0561 0.78307,0.13097 0.0692,0.18258 -0.12413,0.35774 -0.41359,0.46748 -0.37407,0.14181 -0.77667,0.1009 -0.92176,0.054 l -0.1376,0.95367 c 0.15569,0.0479 0.82962,0.0522 1.53323,-0.21455 z"
           style="font-weight:bold;font-family:'League Spartan';-inkscape-font-specification:'League Spartan Bold'"
           id="path902" />
        <path
           d="m 107.87238,251.17785 -1.36176,0.34561 0.96183,3.78986 1.37561,-0.34912 -0.14175,-0.55855 c 0.18907,0.22225 0.74227,0.52407 1.46239,0.34131 1.10327,-0.28 1.61919,-1.36415 1.33685,-2.47665 -0.28234,-1.11249 -1.25165,-1.81479 -2.35491,-1.53479 -0.74782,0.18979 -1.08856,0.84131 -1.12127,1.0609 z m 2.27602,1.4369 c 0.13472,0.53086 -0.17192,1.02632 -0.66123,1.15051 -0.51701,0.13121 -0.98361,-0.17784 -1.11599,-0.69947 -0.13356,-0.52624 0.13154,-1.01117 0.64855,-1.14238 0.48931,-0.12418 0.99277,0.15586 1.12867,0.69134 z"
           style="font-weight:bold;font-family:'League Spartan';-inkscape-font-specification:'League Spartan Bold'"
           id="path904" />
        <path
           d="m 100.6372,256.27633 c 0.69244,-0.0633 1.22948,-0.51885 1.32589,-0.87677 0.21663,0.38192 0.57595,0.70298 1.26365,0.64014 0.64501,-0.0589 1.18421,-0.4908 1.2716,-0.79051 l 0.0507,0.5549 1.40859,-0.12871 -0.35581,-3.89379 -1.40859,0.12871 0.18939,2.07258 c 0.052,0.56913 -0.21041,0.94222 -0.65623,0.98296 -0.4553,0.0416 -0.64992,-0.30885 -0.7002,-0.85901 l -0.18938,-2.07258 -1.30426,0.11918 0.18939,2.07258 c 0.0511,0.55964 -0.21041,0.94222 -0.65622,0.98296 -0.49325,0.0451 -0.64993,-0.30886 -0.7002,-0.85901 l -0.18939,-2.07258 -1.399109,0.12785 0.208891,2.286 c 0.108779,1.19043 0.769131,1.66571 1.651278,1.5851 z"
           style="font-weight:bold;font-family:'League Spartan';-inkscape-font-specification:'League Spartan Bold'"
           id="path906" />
        <path
           d="m 96.992849,256.9766 c -0.45222,-0.014 -0.830131,0.34113 -0.843869,0.78383 -0.01389,0.44746 0.350796,0.82566 0.793496,0.8394 0.442699,0.0137 0.816145,-0.35109 0.829735,-0.78903 0.01374,-0.4427 -0.336663,-0.82046 -0.779362,-0.8342 z m 0.875,-4.70429 -1.423303,-0.0442 -0.121279,3.90813 1.423302,0.0442 z"
           style="font-weight:bold;font-family:'League Spartan';-inkscape-font-specification:'League Spartan Bold'"
           id="path908" />
        <path
           d="m 94.484102,251.97172 c -0.474095,-0.0452 -0.894763,0.30212 -0.939559,0.77148 -0.04525,0.47409 0.30212,0.89476 0.776215,0.94001 0.469355,0.0448 0.885282,-0.30302 0.93053,-0.77712 0.04479,-0.46936 -0.297831,-0.88957 -0.767186,-0.93437 z"
           style="font-weight:bold;font-family:'League Spartan';-inkscape-font-specification:'League Spartan Bold'"
           id="path910" />
        <path
           d="m 90.302948,252.5088 c 0.468739,0.0843 0.815145,0.55298 0.717413,1.09672 -0.09773,0.54373 -0.584838,0.8578 -1.053576,0.77355 -0.374991,-0.0674 -0.57013,-0.30087 -0.6248,-0.3736 l -0.828107,0.83828 c 0.126406,0.1582 0.58462,0.51638 1.268978,0.63938 1.321842,0.23759 2.353988,-0.38981 2.578097,-1.63665 0.223266,-1.24216 -0.524109,-2.19909 -1.845951,-2.43668 -0.698421,-0.12554 -1.23862,0.0532 -1.410521,0.14809 l 0.474986,1.07249 c 0.09317,-0.0607 0.362553,-0.18645 0.723481,-0.12158 z"
           style="font-weight:bold;font-family:'League Spartan';-inkscape-font-specification:'League Spartan Bold'"
           id="path912" />
        <path
           d="m 87.20202,250.75597 -1.647904,6.34262 1.382839,0.35928 1.647904,-6.34262 z"
           style="font-weight:bold;font-family:'League Spartan';-inkscape-font-specification:'League Spartan Bold'"
           id="path914" />
        <path
           d="m 84.302799,252.06199 -0.612437,1.70803 1.322492,0.4742 0.663875,-1.85149 c 0.422759,-1.17903 -0.05425,-2.20511 -1.363292,-2.67448 -1.313527,-0.47099 -2.329367,0.0198 -2.752125,1.19885 l -0.663876,1.85149 1.322493,0.47419 0.612437,-1.70803 c 0.21379,-0.59624 0.550552,-0.90048 1.084032,-0.7092 0.528997,0.18968 0.600191,0.6402 0.386401,1.23644 z"
           style="font-weight:bold;font-family:'League Spartan';-inkscape-font-specification:'League Spartan Bold'"
           id="path916" />
        <path
           d="m 81.412371,248.75223 -1.257019,-0.63809 -0.288865,0.56905 c -0.0082,-0.40473 -0.321881,-1.00726 -0.890937,-1.29613 -1.010712,-0.51305 -2.080752,-0.0254 -2.600277,0.99803 -0.519525,1.02345 -0.283742,2.17929 0.72697,2.69234 0.670976,0.3406 1.334216,0.20193 1.531376,0.003 l -1.457256,2.87076 1.269759,0.64456 z m -3.788572,0.26664 c 0.250061,-0.49262 0.78146,-0.66617 1.231609,-0.43767 0.475628,0.24144 0.649115,0.78349 0.403365,1.26761 -0.243595,0.47988 -0.787863,0.66826 -1.263491,0.42682 -0.450149,-0.2285 -0.619389,-0.7684 -0.371483,-1.25676 z"
           style="font-weight:bold;font-family:'League Spartan';-inkscape-font-specification:'League Spartan Bold'"
           id="path918" />
        <path
           d="m 73.118094,245.29487 c -0.385868,-0.27914 -0.921734,-0.19655 -1.200876,0.18932 -0.279142,0.38587 -0.192694,0.92453 0.193174,1.20367 0.382009,0.27635 0.916808,0.18711 1.19595,-0.19876 0.279141,-0.38587 0.193761,-0.91787 -0.188248,-1.19423 z"
           style="font-weight:bold;font-family:'League Spartan';-inkscape-font-specification:'League Spartan Bold';fill:#2ec4b6;fill-opacity:1"
           id="path920" />
        <path
           d="m 68.255334,240.92801 c 0.342437,0.33098 0.369179,0.91321 -0.01476,1.31043 -0.383942,0.39723 -0.963428,0.38688 -1.305866,0.0559 -0.273949,-0.26479 -0.30604,-0.56737 -0.310953,-0.65822 l -1.154621,0.23519 c 0.0169,0.2018 0.198075,0.75445 0.698034,1.23769 0.965673,0.93338 2.172357,0.98695 3.052776,0.0761 0.87711,-0.90746 0.789153,-2.11847 -0.17652,-3.05185 -0.510232,-0.49317 -1.058452,-0.64551 -1.254088,-0.66239 l -0.202645,1.15533 c 0.111172,0.001 0.404969,0.047 0.668646,0.30186 z"
           style="font-weight:bold;font-family:'League Spartan';-inkscape-font-specification:'League Spartan Bold'"
           id="path922" />
        <path
           d="m 65.568037,239.01514 -1.815086,-2.16986 c -0.03899,0.0202 -0.202774,0.151 -0.242957,0.18461 -1.044745,0.87393 -1.065914,1.94718 -0.246986,2.92617 0.861708,1.03013 2.039237,1.0572 2.912294,0.32689 1.048399,-0.87698 1.022995,-2.07271 0.188789,-3.06997 -0.690589,-0.82556 -1.200724,-1.01974 -1.553825,-1.04103 l -0.326183,1.00552 c 0.254929,0.0227 0.667491,0.21156 1.018896,0.63165 0.375852,0.44932 0.37549,0.90909 0.06506,1.20602 z m -1.52749,-0.65327 0.928933,1.1105 c -0.271583,0.20234 -0.671574,0.21407 -0.9802,-0.15488 -0.30557,-0.3653 -0.177008,-0.74604 0.05127,-0.95562 z"
           style="font-weight:bold;font-family:'League Spartan';-inkscape-font-specification:'League Spartan Bold'"
           id="path924" />
        <path
           d="m 63.847702,234.07345 -1.63012,1.10066 c -0.315761,0.21321 -0.897793,0.29589 -1.228258,-0.19354 -0.189217,-0.28024 -0.197447,-0.55626 -0.154636,-0.6886 l -1.272217,0.19241 c -0.0095,0.1731 0.05987,0.52273 0.262418,0.8227 0.399756,0.59205 0.976187,0.6798 1.240164,0.64523 l -0.457855,0.30914 0.796847,1.18016 3.240504,-2.188 z"
           style="font-weight:bold;font-family:'League Spartan';-inkscape-font-specification:'League Spartan Bold'"
           id="path926" />
        <path
           d="m 59.192704,234.1127 1.027988,-0.57185 -0.326439,-0.58683 1.310997,-0.72928 c 0.803246,-0.44683 0.906942,-1.14213 0.527253,-1.82468 -0.314863,-0.56602 -0.774843,-0.89327 -0.863675,-0.9256 l -0.650337,0.91764 c 0.04071,0.005 0.195249,0.0767 0.278595,0.22651 0.122704,0.22058 -0.02707,0.40199 -0.31424,0.56174 l -0.973884,0.54175 -0.428307,-0.76995 -1.027989,0.57185 0.428307,0.76995 -1.402559,0.78021 0.685291,1.23192 1.402559,-0.78021 z"
           style="font-weight:bold;font-family:'League Spartan';-inkscape-font-specification:'League Spartan Bold'"
           id="path928" />
        <path
           d="m 56.198275,230.18582 c -0.191637,-0.40985 -0.679156,-0.58671 -1.080375,-0.39911 -0.405533,0.18962 -0.578364,0.68577 -0.390761,1.08699 0.187603,0.40122 0.681733,0.56973 1.078638,0.38415 0.401219,-0.18761 0.580101,-0.67081 0.392498,-1.07203 z m 4.59262,-1.34304 -0.603153,-1.28994 -3.541944,1.65615 0.603153,1.28994 z"
           style="font-weight:bold;font-family:'League Spartan';-inkscape-font-specification:'League Spartan Bold'"
           id="path930" />
        <path
           d="m 56.129985,228.23442 1.109913,-0.38969 -0.216148,-0.61562 2.579311,-0.90562 -0.47174,-1.34357 -2.57931,0.90561 -0.321856,-0.91669 -1.109912,0.3897 0.321855,0.91669 -0.858272,0.30134 c -0.4898,0.17197 -0.67787,-0.004 -0.747289,-0.20199 -0.06942,-0.19772 0.0138,-0.36322 0.0432,-0.40888 l -1.16553,-0.17124 c -0.0554,0.11536 -0.179965,0.52251 0.04565,1.16509 0.276101,0.78638 1.100419,1.38027 2.178876,1.00162 l 0.975105,-0.34237 z m -2.243332,-3.91664 c -0.148306,-0.42239 -0.615795,-0.64691 -1.033698,-0.50019 -0.422395,0.14831 -0.64376,0.62479 -0.49861,1.0382 0.148306,0.42239 0.623205,0.63926 1.036614,0.49411 0.417902,-0.14673 0.644,-0.60972 0.495694,-1.03212 z m 4.70351,-0.87916 -0.471739,-1.34358 -3.689224,1.29531 0.471739,1.34358 z"
           style="font-weight:bold;font-family:'League Spartan';-inkscape-font-specification:'League Spartan Bold'"
           id="path932" />
        <path
           d="m 56.009322,220.33442 -0.590193,-2.76667 c -0.04391,-3.8e-4 -0.249839,0.0387 -0.301073,0.0496 -1.332103,0.28417 -1.852532,1.22303 -1.58625,2.4713 0.280193,1.31347 1.30848,1.88786 2.421671,1.6504 1.33676,-0.28516 1.873276,-1.35407 1.602025,-2.62562 -0.224551,-1.05264 -0.584741,-1.46277 -0.88693,-1.64666 l -0.758405,0.73641 c 0.21475,0.13923 0.491164,0.49906 0.605427,1.03469 0.122212,0.5729 -0.09304,0.97917 -0.506272,1.09654 z m -1.044923,-1.29156 0.302051,1.41595 c -0.334671,0.0519 -0.693746,-0.12471 -0.794098,-0.59514 -0.09936,-0.46577 0.192277,-0.74225 0.492047,-0.82081 z"
           style="font-weight:bold;font-family:'League Spartan';-inkscape-font-specification:'League Spartan Bold'"
           id="path934" />
        <path
           d="m 56.508537,212.01275 -6.527184,0.58335 0.127184,1.42308 3.206669,-0.28659 c -0.258434,0.10438 -0.633556,0.66865 -0.566573,1.41814 0.1009,1.12898 1.086444,1.77725 2.22965,1.67507 1.143206,-0.10217 1.993432,-0.9145 1.892533,-2.04348 -0.05681,-0.63564 -0.499705,-1.15071 -0.872008,-1.30391 l 0.635641,-0.0568 z m -1.65447,3.42318 c -0.545513,0.0488 -0.98433,-0.31367 -1.029268,-0.81649 -0.04706,-0.52654 0.330023,-0.96189 0.866049,-1.00979 0.540769,-0.0483 0.979586,0.31409 1.026644,0.84063 0.04494,0.50282 -0.313168,0.93647 -0.863425,0.98565 z"
           style="font-weight:bold;font-family:'League Spartan';-inkscape-font-specification:'League Spartan Bold'"
           id="path936" />
        <path
           d="m 53.126237,202.81405 c -0.08793,0.68974 0.240755,1.31257 0.569365,1.48409 -0.419725,0.12893 -0.810878,0.41034 -0.898208,1.09536 -0.08191,0.6425 0.223156,1.26231 0.496881,1.41244 l -0.552738,-0.0705 -0.178877,1.40311 3.878621,0.49446 0.178876,-1.4031 -2.064503,-0.2632 c -0.566912,-0.0723 -0.874442,-0.40914 -0.817828,-0.85322 0.05782,-0.45353 0.442064,-0.56778 0.990079,-0.49792 l 2.064503,0.2632 0.165626,-1.29917 -2.064503,-0.2632 c -0.557463,-0.0711 -0.874441,-0.40914 -0.817827,-0.85322 0.06264,-0.49133 0.442064,-0.56778 0.990079,-0.49792 l 2.064503,0.2632 0.177671,-1.39366 -2.277095,-0.2903 c -1.18579,-0.15117 -1.792601,0.39081 -1.904625,1.26952 z"
           style="font-weight:bold;font-family:'League Spartan';-inkscape-font-specification:'League Spartan Bold'"
           id="path938" />
        <path
           d="m 56.305471,199.45857 0.768017,-2.72268 c -0.03867,-0.0208 -0.239054,-0.0823 -0.289474,-0.0965 -1.310918,-0.36978 -2.209098,0.21808 -2.55561,1.44649 -0.364614,1.29258 0.277189,2.28021 1.372677,2.58922 1.315502,0.37108 2.288551,-0.32432 2.641528,-1.57565 0.292209,-1.0359 0.164821,-1.56667 -0.01675,-1.87025 l -1.014292,0.29779 c 0.125046,0.22331 0.20178,0.67051 0.05309,1.19763 -0.159033,0.56379 -0.538897,0.82281 -0.959182,0.73395 z m -0.322104,-1.6298 -0.393058,1.39343 c -0.320266,-0.11014 -0.555552,-0.43382 -0.424964,-0.89677 0.129296,-0.45836 0.516208,-0.56695 0.818022,-0.49666 z"
           style="font-weight:bold;font-family:'League Spartan';-inkscape-font-specification:'League Spartan Bold'"
           id="path940" />
        <path
           d="m 57.358201,189.88514 c -0.285574,0.63397 -0.153154,1.32565 0.111022,1.58568 -0.439081,7e-4 -0.895374,0.15558 -1.178992,0.78521 -0.266015,0.59055 -0.155306,1.27245 0.06263,1.49598 l -0.508048,-0.22885 -0.580929,1.28966 3.565022,1.60587 0.580929,-1.28967 -1.897582,-0.85476 c -0.521075,-0.23472 -0.716791,-0.64673 -0.532928,-1.05491 0.187775,-0.41686 0.588635,-0.41388 1.092341,-0.18699 l 1.897582,0.85477 0.537898,-1.19413 -1.897582,-0.85477 c -0.512391,-0.23081 -0.716792,-0.64673 -0.532929,-1.0549 0.203423,-0.4516 0.588636,-0.41389 1.092342,-0.18699 l 1.897582,0.85476 0.577017,-1.28097 -2.092986,-0.94279 c -1.089915,-0.49095 -1.828575,-0.14987 -2.192389,0.6578 z"
           style="font-weight:bold;font-family:'League Spartan';-inkscape-font-specification:'League Spartan Bold'"
           id="path942" />
        <path
           d="m 62.123282,189.47589 0.771432,-1.17989 -0.534141,-0.34923 c 0.403207,0.036 1.036373,-0.21006 1.385602,-0.7442 0.620273,-0.94869 0.252304,-2.06555 -0.708352,-2.69364 -0.960656,-0.62809 -2.135317,-0.51983 -2.75559,0.42887 -0.411778,0.6298 -0.346299,1.30422 -0.169988,1.52191 l -2.69462,-1.76178 -0.77925,1.19185 z m 0.148322,-3.79504 c 0.46239,0.30232 0.576925,0.84948 0.300669,1.27201 -0.291893,0.44644 -0.849633,0.55975 -1.304052,0.26265 -0.450432,-0.2945 -0.578305,-0.85608 -0.286412,-1.30252 0.276256,-0.42253 0.83139,-0.53185 1.289795,-0.23214 z"
           style="font-weight:bold;font-family:'League Spartan';-inkscape-font-specification:'League Spartan Bold'"
           id="path944" />
        <path
           d="m 64.574275,183.10327 1.822609,-2.16354 c -0.02664,-0.0349 -0.183838,-0.17355 -0.223904,-0.2073 -1.041705,-0.87756 -2.102391,-0.71248 -2.924713,0.26367 -0.865279,1.02713 -0.68795,2.19155 0.182566,2.92489 1.045348,0.88062 2.218592,0.64845 3.056256,-0.3459 0.693451,-0.82317 0.796317,-1.35923 0.756118,-1.71068 l -1.046825,-0.14706 c 0.02181,0.25501 -0.09273,0.69405 -0.445595,1.11292 -0.377409,0.44801 -0.830292,0.5273 -1.176512,0.273 z m 0.378774,-1.61756 -0.932783,1.10726 c -0.246331,-0.23242 -0.32717,-0.62433 -0.01727,-0.99221 0.306836,-0.36423 0.704092,-0.30357 0.950048,-0.11505 z"
           style="font-weight:bold;font-family:'League Spartan';-inkscape-font-specification:'League Spartan Bold'"
           id="path946" />
        <path
           d="m 69.144525,180.5541 -1.366677,-1.41455 c -0.264732,-0.274 -0.447095,-0.83288 -0.02239,-1.24321 0.243178,-0.23495 0.513589,-0.29092 0.65135,-0.27171 l -0.410126,-1.21957 c -0.172127,0.0206 -0.504421,0.14962 -0.764725,0.40111 -0.513757,0.49637 -0.500213,1.07929 -0.420382,1.33327 l -0.383861,-0.39731 -1.024089,0.98944 2.716808,2.81196 z"
           style="font-weight:bold;font-family:'League Spartan';-inkscape-font-specification:'League Spartan Bold'"
           id="path948" />
        <path
           d="m 72.963434,175.77007 c 0.384736,-0.2807 0.471812,-0.81586 0.191112,-1.20059 -0.280699,-0.38474 -0.819702,-0.46901 -1.204438,-0.18831 -0.380889,0.2779 -0.461311,0.81409 -0.180611,1.19883 0.2807,0.38473 0.813048,0.46796 1.193937,0.19007 z"
           style="font-weight:bold;font-family:'League Spartan';-inkscape-font-specification:'League Spartan Bold';fill:#2ec4b6;fill-opacity:1"
           id="path950" />
        <path
           d="m 79.908796,172.95376 1.249085,-0.64315 -1.789909,-3.47626 -1.261787,0.64968 0.263799,0.51234 c -0.234232,-0.17402 -0.841162,-0.34362 -1.501694,-0.004 -1.011971,0.52105 -1.270724,1.69349 -0.745306,2.71393 0.525418,1.02044 1.627892,1.48663 2.639862,0.96557 0.685938,-0.35318 0.871341,-1.06467 0.853809,-1.28598 z m -2.540962,-0.88794 c -0.250718,-0.48693 -0.06342,-1.03869 0.385401,-1.26978 0.474228,-0.24418 0.998403,-0.048 1.24476,0.43042 0.248538,0.4827 0.09935,1.01484 -0.374878,1.25902 -0.448823,0.23109 -1.002385,0.0715 -1.255283,-0.41966 z"
           style="font-weight:bold;font-family:'League Spartan';-inkscape-font-specification:'League Spartan Bold'"
           id="path952" />
        <path
           d="m 82.222982,167.57633 c -0.850465,0.32273 -1.495588,0.98522 -1.221864,1.70656 0.28893,0.76141 1.068808,0.7762 1.584108,0.69782 0.419488,-0.0624 0.698179,-0.0663 0.779282,0.14745 0.07434,0.19592 -0.105432,0.40677 -0.483911,0.55039 -0.39629,0.15038 -0.863088,0.0881 -1.069622,0.0137 l -0.0946,1.03939 c 0.19256,0.0645 0.808304,0.15681 1.640958,-0.15915 0.797033,-0.30245 1.704269,-0.93197 1.319029,-1.94719 -0.285551,-0.7525 -1.028575,-0.75071 -1.609593,-0.65758 -0.446204,0.0725 -0.712153,0.0563 -0.783118,-0.13072 -0.06928,-0.18256 0.124019,-0.35778 0.413444,-0.46761 0.374026,-0.14193 0.776638,-0.10114 0.921748,-0.0543 l 0.137296,-0.95371 c -0.155705,-0.0479 -0.829633,-0.0519 -1.533159,0.21502 z"
           style="font-weight:bold;font-family:'League Spartan';-inkscape-font-specification:'League Spartan Bold'"
           id="path954" />
        <path
           d="m 88.789423,169.76772 1.361657,-0.34603 -0.96303,-3.78956 -1.375505,0.34955 0.141933,0.55851 c -0.189141,-0.2222 -0.742442,-0.52384 -1.462505,-0.34085 -1.103173,0.28035 -1.618753,1.36466 -1.336061,2.47706 0.282692,1.11241 1.252222,1.8144 2.355395,1.53406 0.747758,-0.19003 1.088289,-0.84166 1.120934,-1.06125 z m -2.27647,-1.43618 c -0.134894,-0.53081 0.17159,-1.02638 0.660864,-1.15071 0.516968,-0.13138 0.983666,0.17753 1.116214,0.69911 0.133722,0.5262 -0.131221,1.01121 -0.648189,1.14258 -0.489273,0.12434 -0.992821,-0.15555 -1.128889,-0.69098 z"
           style="font-weight:bold;font-family:'League Spartan';-inkscape-font-specification:'League Spartan Bold'"
           id="path956" />
        <path
           d="m 96.022991,164.66698 c -0.69242,0.0635 -1.229311,0.51923 -1.325615,0.87718 -0.216748,-0.38185 -0.576169,-0.7028 -1.263846,-0.63974 -0.644994,0.0591 -1.184059,0.49117 -1.271354,0.79091 l -0.05088,-0.55489 -1.408553,0.12916 0.357034,3.89368 1.408553,-0.12916 -0.190041,-2.07252 c -0.05219,-0.56911 0.21011,-0.94228 0.655915,-0.98316 0.45529,-0.0418 0.650024,0.30864 0.700469,0.85879 l 0.190041,2.07251 1.304216,-0.11959 -0.190041,-2.07252 c -0.05132,-0.55962 0.21011,-0.94228 0.655915,-0.98316 0.493231,-0.0452 0.650024,0.30865 0.70047,0.85879 l 0.190041,2.07252 1.399068,-0.12829 -0.209611,-2.28594 c -0.109154,-1.19039 -0.769656,-1.66546 -1.651781,-1.58457 z"
           style="font-weight:bold;font-family:'League Spartan';-inkscape-font-specification:'League Spartan Bold'"
           id="path958" />
        <path
           d="m 99.667127,163.96557 c 0.452223,0.0139 0.830023,-0.34139 0.843623,-0.78409 0.0138,-0.44747 -0.35106,-0.82556 -0.793759,-0.83916 -0.442703,-0.0136 -0.816035,0.35135 -0.829488,0.78929 -0.0136,0.4427 0.33692,0.82036 0.779624,0.83396 z m -0.873526,4.70456 1.423319,0.0437 0.12005,-3.90817 -1.423314,-0.0437 z"
           style="font-weight:bold;font-family:'League Spartan';-inkscape-font-specification:'League Spartan Bold'"
           id="path960" />
        <path
           d="m 102.17743,168.96966 c 0.47411,0.0451 0.89467,-0.3024 0.93932,-0.77177 0.0451,-0.47411 -0.3024,-0.89467 -0.77651,-0.93977 -0.46937,-0.0446 -0.88518,0.3033 -0.93028,0.77741 -0.0447,0.46937 0.29811,0.88948 0.76747,0.93413 z"
           style="font-weight:bold;font-family:'League Spartan';-inkscape-font-specification:'League Spartan Bold'"
           id="path962" />
        <path
           d="m 106.35843,168.43126 c -0.46876,-0.0841 -0.81531,-0.55273 -0.71775,-1.09649 0.0976,-0.54377 0.58457,-0.85799 1.05333,-0.77389 0.37502,0.0673 0.57023,0.30069 0.62492,0.37341 l 0.82785,-0.83853 c -0.12646,-0.15817 -0.58478,-0.5162 -1.26918,-0.639 -1.32192,-0.23717 -2.35387,0.39055 -2.57759,1.63747 -0.22288,1.24222 0.5248,2.19892 1.84671,2.4361 0.69846,0.12532 1.23861,-0.0536 1.41048,-0.14853 l -0.47532,-1.07235 c -0.0931,0.0607 -0.3625,0.18657 -0.72345,0.12181 z"
           style="font-weight:bold;font-family:'League Spartan';-inkscape-font-specification:'League Spartan Bold'"
           id="path964" />
        <path
           d="m 109.4599,170.18313 1.64592,-6.34313 -1.38295,-0.35886 -1.64592,6.34314 z"
           style="font-weight:bold;font-family:'League Spartan';-inkscape-font-specification:'League Spartan Bold'"
           id="path966" />
        <path
           d="m 112.35872,168.87621 0.6119,-1.70823 -1.32264,-0.47378 -0.66329,1.8517 c -0.42239,1.17916 0.0549,2.20509 1.36412,2.67406 1.31368,0.47057 2.32936,-0.0205 2.75175,-1.19971 l 0.6633,-1.8517 -1.32264,-0.47378 -0.6119,1.70822 c -0.21361,0.59631 -0.55027,0.90065 -1.08381,0.70953 -0.52906,-0.18951 -0.60039,-0.64 -0.38679,-1.23631 z"
           style="font-weight:bold;font-family:'League Spartan';-inkscape-font-specification:'League Spartan Bold'"
           id="path968" />
        <path
           d="m 115.25019,172.18508 1.25722,0.63769 0.28868,-0.56915 c 0.008,0.40473 0.3222,1.00717 0.89135,1.29586 1.01087,0.51274 2.08076,0.0248 2.59996,-0.99884 0.51921,-1.02362 0.28306,-2.17938 -0.72781,-2.69212 -0.67108,-0.34039 -1.33428,-0.20151 -1.53138,-0.002 l 1.45636,-2.87122 -1.26996,-0.64415 z m 3.78849,-0.26783 c -0.24991,0.49269 -0.78125,0.66641 -1.23147,0.43805 -0.47571,-0.24129 -0.64936,-0.78329 -0.40377,-1.26748 0.24345,-0.47996 0.78766,-0.66851 1.26336,-0.42722 0.45022,0.22836 0.61963,0.7682 0.37188,1.25665 z"
           style="font-weight:bold;font-family:'League Spartan';-inkscape-font-specification:'League Spartan Bold'"
           id="path970" />
        <path
           d="m 123.54554,175.6398 c 0.38595,0.27902 0.9218,0.19626 1.20082,-0.18969 0.27902,-0.38596 0.1924,-0.92459 -0.19356,-1.20361 -0.38209,-0.27623 -0.91686,-0.18682 -1.19589,0.19913 -0.27902,0.38596 -0.19347,0.91794 0.18863,1.19417 z"
           style="font-weight:bold;font-family:'League Spartan';-inkscape-font-specification:'League Spartan Bold';fill:#2ec4b6;fill-opacity:1"
           id="path972" />
        <path
           d="m 128.40969,180.00515 c -0.34255,-0.33088 -0.36947,-0.9131 0.0143,-1.31044 0.38382,-0.39735 0.96331,-0.38718 1.30585,-0.0563 0.27404,0.26471 0.30622,0.56728 0.31116,0.65813 l 1.15455,-0.23556 c -0.017,-0.20179 -0.19831,-0.75439 -0.69842,-1.23747 -0.96597,-0.93307 -2.17267,-0.98626 -3.0528,-0.0751 -0.87683,0.90773 -0.78849,2.11872 0.17748,3.05179 0.51039,0.49301 1.05865,0.64518 1.2543,0.662 l 0.20228,-1.1554 c -0.11118,-0.001 -0.40499,-0.0469 -0.66874,-0.30164 z"
           style="font-weight:bold;font-family:'League Spartan';-inkscape-font-specification:'League Spartan Bold'"
           id="path974" />
        <path
           d="m 131.09758,181.91716 1.81577,2.16929 c 0.039,-0.0202 0.20272,-0.15106 0.24289,-0.18469 1.04447,-0.87425 1.06531,-1.94751 0.24607,-2.92624 -0.86203,-1.02987 -2.03957,-1.05657 -2.9124,-0.32598 -1.04812,0.87732 -1.02234,2.07303 -0.18782,3.07003 0.69085,0.82535 1.20105,1.01937 1.55415,1.04055 l 0.32587,-1.00563 c -0.25494,-0.0226 -0.66756,-0.21135 -1.0191,-0.63133 -0.37599,-0.4492 -0.37577,-0.90897 -0.0654,-1.206 z m 1.52769,0.65279 -0.92928,-1.11021 c 0.27152,-0.20243 0.67151,-0.21427 0.98025,0.15458 0.30568,0.3652 0.17724,0.74598 -0.051,0.95563 z"
           style="font-weight:bold;font-family:'League Spartan';-inkscape-font-specification:'League Spartan Bold'"
           id="path976" />
        <path
           d="m 132.81946,186.8583 1.62978,-1.10116 c 0.3157,-0.21331 0.8977,-0.29617 1.22832,0.19316 0.1893,0.28018 0.19762,0.5562 0.15485,0.68855 l 1.27216,-0.19281 c 0.009,-0.17309 -0.06,-0.5227 -0.26268,-0.82261 -0.39994,-0.59193 -0.97639,-0.6795 -1.24036,-0.64484 l 0.45776,-0.30929 -0.79722,-1.17991 -3.23982,2.189 z"
           style="font-weight:bold;font-family:'League Spartan';-inkscape-font-specification:'League Spartan Bold'"
           id="path978" />
        <path
           d="m 137.47445,186.81763 -1.02781,0.57217 0.32662,0.58673 -1.31077,0.72968 c -0.80311,0.44708 -0.90659,1.14242 -0.52669,1.82485 0.31504,0.56592 0.77512,0.89303 0.86396,0.92533 l 0.65005,-0.91784 c -0.0407,-0.005 -0.19527,-0.0766 -0.27866,-0.22643 -0.12277,-0.22054 0.0269,-0.402 0.31407,-0.56183 l 0.97371,-0.54205 0.42855,0.76981 1.02781,-0.57216 -0.42854,-0.76982 1.40231,-0.78065 -0.68567,-1.2317 -1.40232,0.78064 z"
           style="font-weight:bold;font-family:'League Spartan';-inkscape-font-specification:'League Spartan Bold'"
           id="path980" />
        <path
           d="m 140.47009,190.74358 c 0.19177,0.40978 0.67934,0.5865 1.0805,0.39877 0.40548,-0.18975 0.57815,-0.68595 0.39042,-1.08711 -0.18772,-0.40116 -0.68191,-0.56952 -1.07875,-0.38381 -0.40116,0.18773 -0.5799,0.67099 -0.39217,1.07215 z m -4.5922,1.34448 0.60356,1.28975 3.54142,-1.65726 -0.60355,-1.28975 z"
           style="font-weight:bold;font-family:'League Spartan';-inkscape-font-specification:'League Spartan Bold'"
           id="path982" />
        <path
           d="m 140.53899,192.69493 -1.10979,0.39005 0.21635,0.61555 -2.57903,0.90642 0.47216,1.34343 2.57903,-0.90642 0.32214,0.91659 1.10979,-0.39005 -0.32214,-0.91659 0.85818,-0.30161 c 0.48974,-0.17213 0.67787,0.004 0.74735,0.20175 0.0695,0.1977 -0.0137,0.36323 -0.0431,0.40889 l 1.16558,0.17087 c 0.0554,-0.11537 0.1798,-0.52256 -0.046,-1.16507 -0.27634,-0.78629 -1.10085,-1.37992 -2.17919,-1.00093 l -0.97499,0.34267 z m 2.24457,3.91594 c 0.14844,0.42234 0.616,0.64672 1.03385,0.49986 0.42235,-0.14844 0.64357,-0.62499 0.49829,-1.03835 -0.14844,-0.42235 -0.62341,-0.63907 -1.03677,-0.49379 -0.41786,0.14686 -0.64381,0.60993 -0.49537,1.03228 z m -4.70323,0.88064 0.47216,1.34343 3.68881,-1.29647 -0.47216,-1.34343 z"
           style="font-weight:bold;font-family:'League Spartan';-inkscape-font-specification:'League Spartan Bold'"
           id="path984" />
        <path
           d="m 140.66214,200.5949 0.59106,2.76648 c 0.0439,3.6e-4 0.24983,-0.0388 0.30106,-0.0497 1.33201,-0.28458 1.85215,-1.22361 1.58547,-2.47179 -0.28061,-1.31338 -1.30908,-1.88746 -2.42219,-1.64964 -1.33667,0.28559 -1.87285,1.35466 -1.6012,2.62613 0.22489,1.05257 0.58521,1.46258 0.88745,1.64637 l 0.75818,-0.73664 c -0.2148,-0.13917 -0.49133,-0.4989 -0.60576,-1.0345 -0.12239,-0.57286 0.0927,-0.9792 0.50593,-1.0967 z m 1.04533,1.29122 -0.3025,-1.41584 c 0.33465,-0.052 0.69379,0.12449 0.79429,0.59489 0.0995,0.46573 -0.19205,0.7423 -0.49179,0.82095 z"
           style="font-weight:bold;font-family:'League Spartan';-inkscape-font-specification:'League Spartan Bold'"
           id="path986" />
        <path
           d="m 140.16554,208.91672 6.527,-0.5854 -0.12763,-1.42304 -3.20658,0.2876 c 0.2584,-0.10447 0.63335,-0.66886 0.56613,-1.41832 -0.10126,-1.12895 -1.08701,-1.7769 -2.23018,-1.67437 -1.14317,0.10253 -1.99314,0.91513 -1.89189,2.04408 0.057,0.63562 0.50007,1.15055 0.87242,1.30364 l -0.63562,0.057 z m 1.65339,-3.4237 c 0.5455,-0.0489 0.98443,0.31336 1.02953,0.81617 0.0472,0.52653 -0.32972,0.96199 -0.86573,1.01006 -0.54076,0.0485 -0.97969,-0.31378 -1.02691,-0.84031 -0.0451,-0.5028 0.31287,-0.93657 0.86311,-0.98592 z"
           style="font-weight:bold;font-family:'League Spartan';-inkscape-font-specification:'League Spartan Bold'"
           id="path988" />
        <path
           d="m 143.55072,218.11438 c 0.0877,-0.68977 -0.24117,-1.3125 -0.56983,-1.48392 0.41969,-0.12906 0.81075,-0.41059 0.89787,-1.09563 0.0817,-0.64253 -0.22355,-1.26225 -0.49733,-1.41229 l 0.55277,0.0703 0.17843,-1.40317 -3.87877,-0.49326 -0.17844,1.40317 2.06459,0.26255 c 0.56693,0.0721 0.87457,0.40887 0.81809,0.85297 -0.0577,0.45354 -0.44189,0.56791 -0.98992,0.49822 l -2.06459,-0.26255 -0.16522,1.29922 2.06459,0.26255 c 0.55748,0.0709 0.87457,0.40888 0.81809,0.85297 -0.0625,0.49135 -0.44189,0.56792 -0.98992,0.49823 l -2.06459,-0.26255 -0.17724,1.39371 2.27719,0.28959 c 1.18584,0.1508 1.79248,-0.39137 1.90423,-1.27011 z"
           style="font-weight:bold;font-family:'League Spartan';-inkscape-font-specification:'League Spartan Bold'"
           id="path990" />
        <path
           d="m 140.37253,221.47084 -0.76717,2.72292 c 0.0387,0.0208 0.23908,0.0822 0.28951,0.0964 1.31103,0.36938 2.20903,-0.21876 2.55516,-1.44728 0.36421,-1.2927 -0.2779,-2.28012 -1.37349,-2.5888 -1.31561,-0.37067 -2.28845,0.32503 -2.64103,1.57648 -0.29189,1.03599 -0.16434,1.56672 0.0173,1.87024 l 1.0142,-0.2981 c -0.12511,-0.22328 -0.20199,-0.67045 -0.0535,-1.19762 0.15886,-0.56383 0.53864,-0.82298 0.95895,-0.73425 z m 0.32261,1.6297 0.39263,-1.39355 c 0.3203,0.11004 0.55569,0.43365 0.42524,0.89664 -0.12915,0.4584 -0.51603,0.56711 -0.81787,0.49691 z"
           style="font-weight:bold;font-family:'League Spartan';-inkscape-font-specification:'League Spartan Bold'"
           id="path992" />
        <path
           d="m 139.32279,231.0446 c 0.28538,-0.63406 0.15274,-1.3257 -0.11151,-1.58565 0.43908,-8.4e-4 0.89532,-0.15586 1.17874,-0.78558 0.26583,-0.59063 0.15491,-1.27249 -0.0631,-1.49596 l 0.50812,0.2287 0.58052,-1.28985 -3.56552,-1.60475 -0.58053,1.28984 1.89785,0.85418 c 0.52115,0.23455 0.71699,0.6465 0.53326,1.05473 -0.18765,0.41692 -0.58851,0.41408 -1.09228,0.18734 l -1.89785,-0.85418 -0.53753,1.1943 1.89785,0.85418 c 0.51246,0.23064 0.717,0.6465 0.53326,1.05473 -0.20328,0.45167 -0.58851,0.41408 -1.09228,0.18734 l -1.89785,-0.85418 -0.57662,1.28116 2.09328,0.94213 c 1.09007,0.49062 1.82862,0.1493 2.19218,-0.65848 z"
           style="font-weight:bold;font-family:'League Spartan';-inkscape-font-specification:'League Spartan Bold'"
           id="path994" />
        <path
           d="m 134.55784,231.45534 -0.77106,1.18013 0.53425,0.34907 c -0.40322,-0.0359 -1.03631,0.21038 -1.38537,0.74463 -0.61997,0.94889 -0.25165,2.06563 0.7092,2.69342 0.96086,0.62779 2.13548,0.51916 2.75546,-0.42973 0.41158,-0.62994 0.34589,-1.30433 0.16951,-1.52197 l 2.69517,1.76093 0.77888,-1.19209 z m -0.14713,3.79509 c -0.46248,-0.30217 -0.57719,-0.8493 -0.30107,-1.27191 0.29176,-0.44654 0.84946,-0.56002 1.30397,-0.26306 0.45053,0.29436 0.57858,0.85589 0.28683,1.30243 -0.27613,0.42261 -0.83123,0.53211 -1.28973,0.23254 z"
           style="font-weight:bold;font-family:'League Spartan';-inkscape-font-specification:'League Spartan Bold'"
           id="path996" />
        <path
           d="m 132.10885,237.82873 -1.82192,2.16412 c 0.0266,0.0349 0.18389,0.17349 0.22397,0.20723 1.04198,0.87722 2.10262,0.71181 2.92463,-0.26459 0.86495,-1.02741 0.68726,-2.19177 -0.18349,-2.92484 -1.04563,-0.88029 -2.2188,-0.64775 -3.05615,0.34686 -0.69319,0.82339 -0.79589,1.35948 -0.75558,1.71092 l 1.04688,0.14673 c -0.0219,-0.255 0.0925,-0.69408 0.44524,-1.11306 0.37727,-0.44812 0.83013,-0.52756 1.17642,-0.27337 z m -0.37826,1.61768 0.93244,-1.10756 c 0.2464,0.23235 0.32736,0.62423 0.0176,0.99221 -0.30672,0.36433 -0.70399,0.30379 -0.95001,0.11535 z"
           style="font-weight:bold;font-family:'League Spartan';-inkscape-font-specification:'League Spartan Bold'"
           id="path998" />
        <path
           d="m 127.53941,240.37933 1.36713,1.41412 c 0.26481,0.27392 0.44735,0.83274 0.0228,1.2432 -0.24311,0.23503 -0.5135,0.29109 -0.65127,0.27192 l 0.41051,1.21944 c 0.17212,-0.0207 0.50438,-0.14978 0.7646,-0.40135 0.5136,-0.49654 0.49987,-1.07945 0.41996,-1.3334 l 0.38399,0.39718 1.02378,-0.98975 -2.7177,-2.81111 z"
           style="font-weight:bold;font-family:'League Spartan';-inkscape-font-specification:'League Spartan Bold'"
           id="path1000" />
        <path
           d="m 123.72202,245.16456 c -0.38465,0.28082 -0.47156,0.816 -0.19074,1.20065 0.28082,0.38465 0.81985,0.46875 1.2045,0.18793 0.3808,-0.27801 0.46106,-0.81423 0.18024,-1.19888 -0.28082,-0.38465 -0.8132,-0.46771 -1.194,-0.1897 z"
           style="font-weight:bold;font-family:'League Spartan';-inkscape-font-specification:'League Spartan Bold';fill:#2ec4b6;fill-opacity:1"
           id="path1002" />
      </g>
    </g>
  </g>
</svg>
