<?xml version="1.0" encoding="UTF-8" standalone="no"?>
<svg
   width="178"
   height="32"
   viewBox="0 0 1077 146"
   fill="none"
   version="1.1"
   id="svg438"
   sodipodi:docname="constata.svg"
   inkscape:version="1.2.2 (b0a8486541, 2022-12-01)"
   xmlns:inkscape="http://www.inkscape.org/namespaces/inkscape"
   xmlns:sodipodi="http://sodipodi.sourceforge.net/DTD/sodipodi-0.dtd"
   xmlns="http://www.w3.org/2000/svg"
   xmlns:svg="http://www.w3.org/2000/svg">
  <defs
     id="defs442" />
  <sodipodi:namedview
     id="namedview440"
     pagecolor="#ffffff"
     bordercolor="#000000"
     borderopacity="0.25"
     inkscape:showpageshadow="2"
     inkscape:pageopacity="0.0"
     inkscape:pagecheckerboard="0"
     inkscape:deskcolor="#d1d1d1"
     showgrid="false"
     inkscape:zoom="0.58925565"
     inkscape:cx="763.67532"
     inkscape:cy="-164.61446"
     inkscape:window-width="1920"
     inkscape:window-height="1053"
     inkscape:window-x="0"
     inkscape:window-y="0"
     inkscape:window-maximized="1"
     inkscape:current-layer="svg438" />
  <path
     d="M172.947 38.7632C165.37 38.782 158.11 41.9593 152.758 47.5981C147.407 53.2369 144.401 60.8768 144.401 68.8419C144.401 72.7919 145.142 76.7034 146.58 80.3527C148.018 84.0021 150.125 87.318 152.782 90.1111C155.439 92.9042 158.594 95.1198 162.065 96.6313C165.537 98.1429 169.258 98.9208 173.015 98.9207C180.604 98.9201 187.881 95.7508 193.246 90.11C198.611 84.4692 201.626 76.8189 201.626 68.8419C201.626 65.1134 200.966 61.4175 199.681 57.9425C198.752 60.2693 197.172 62.259 195.143 63.6595C193.115 65.0599 190.727 65.8079 188.285 65.8084C186.666 65.8086 185.064 65.48 183.568 64.8418C182.072 64.2035 180.713 63.2679 179.568 62.0884C178.424 60.9089 177.516 59.5085 176.896 57.9674C176.277 56.4263 175.959 54.7747 175.959 53.1067C175.959 50.4832 176.749 47.9242 178.218 45.7816C179.688 43.639 181.765 42.0179 184.165 41.141C180.637 39.5719 176.846 38.7633 173.015 38.7632C172.993 38.7632 172.97 38.7632 172.947 38.7632Z"
     fill="#1059CE"
     id="path418"
     style="fill:#faf9f5;fill-opacity:1" />
  <path
     d="M524.564 125.443H501.958V34.65H467.883V11.9348H558.558V34.65H524.564V125.443Z"
     fill="#131212"
     id="path420"
     style="fill:#faf9f5;fill-opacity:1" />
  <path
     d="M629.842 79.9438V57.2284C629.842 54.1122 629.226 51.1901 628.018 48.4392C626.855 45.6425 625.248 43.2226 623.196 41.1565C621.144 39.1019 618.716 37.4924 615.923 36.3281C613.187 35.1181 610.257 34.5132 607.145 34.5132C604.044 34.5132 601.091 35.1181 598.299 36.3281C595.551 37.4924 593.157 39.1019 591.105 41.1565C589.042 43.2226 587.412 45.6425 586.203 48.4392C585.04 51.1901 584.459 54.1122 584.459 57.2284V79.9438H629.842ZM652.528 125.306H629.842V102.591H584.459V125.306H561.853V57.2284C561.853 50.9503 563.038 45.0718 565.41 39.5813C567.781 34.0337 570.996 29.2053 575.054 25.096C579.169 20.9753 583.957 17.7334 589.441 15.3591C594.97 12.9849 600.875 11.7978 607.145 11.7978C613.426 11.7978 619.297 12.9849 624.781 15.3591C630.31 17.7334 635.131 20.9753 639.247 25.096C643.351 29.2053 646.6 34.0337 648.971 39.5813C651.342 45.0718 652.528 50.9503 652.528 57.2284V125.306Z"
     fill="#131212"
     id="path422"
     style="fill:#faf9f5;fill-opacity:1" />
  <path
     d="M712.354 125.306H689.748V34.5132H655.674V11.7978H746.349V34.5132H712.354V125.306Z"
     fill="#131212"
     id="path424"
     style="fill:#faf9f5;fill-opacity:1" />
  <path
     d="M818.306 79.9438V57.2284C818.306 54.1122 817.702 51.1901 816.482 48.4392C815.33 45.6425 813.723 43.2226 811.66 41.1565C809.608 39.1019 807.179 37.4924 804.386 36.3281C801.65 35.1181 798.721 34.5132 795.62 34.5132C792.508 34.5132 789.555 35.1181 786.762 36.3281C784.026 37.4924 781.621 39.1019 779.569 41.1565C777.517 43.2226 775.875 45.6425 774.667 48.4392C773.504 51.1901 772.923 54.1122 772.923 57.2284V79.9438H818.306ZM840.992 125.306H818.306V102.591H772.923V125.306H750.317V57.2284C750.317 50.9503 751.502 45.0718 753.873 39.5813C756.244 34.0337 759.459 29.2053 763.518 25.096C767.633 20.9753 772.421 17.7334 777.904 15.3591C783.445 12.9849 789.339 11.7978 795.62 11.7978C801.89 11.7978 807.761 12.9849 813.244 15.3591C818.773 17.7334 823.595 20.9753 827.711 25.096C831.826 29.2053 835.064 34.0337 837.435 39.5813C839.806 45.0718 840.992 50.9503 840.992 57.2284V125.306Z"
     fill="#131212"
     id="path426"
     style="fill:#faf9f5;fill-opacity:1" />
  <path
     d="M883.616 11.8093C869.56 11.8093 858.24 21.5232 858.24 33.6V124.107V124.153V145.944H882.829V145.91C883.092 145.921 883.354 145.944 883.616 145.944H1050.73C1064.79 145.944 1076.1 136.218 1076.1 124.153V33.7027V33.6V11.7978H1051.51V11.8321C1051.25 11.8321 1050.99 11.7978 1050.73 11.7978L883.616 11.8093ZM914.954 33.7027H973.926V50.9389H932.168V68.1751H960.429V85.4228H932.168V102.602H973.926V119.838H914.954V33.7027ZM985.018 33.7027H1002.18V85.4228C1002.18 87.7857 1002.62 90.0115 1003.5 92.089C1004.42 94.1665 1005.65 95.9929 1007.21 97.5567C1008.78 99.1206 1010.6 100.353 1012.67 101.278C1014.8 102.157 1017.03 102.602 1019.39 102.602C1021.75 102.602 1023.97 102.157 1026.05 101.278C1028.17 100.353 1030.01 99.1206 1031.58 97.5567C1033.14 95.9929 1034.35 94.1665 1035.22 92.089C1036.15 90.0115 1036.61 87.7857 1036.61 85.4228V33.7027H1051.51H1053.83V85.4228C1053.83 90.1828 1052.93 94.6689 1051.13 98.8695C1049.33 103.036 1046.87 106.689 1043.75 109.805C1040.63 112.898 1036.97 115.329 1032.77 117.133C1028.61 118.937 1024.15 119.838 1019.39 119.838C1014.64 119.838 1010.16 118.937 1005.96 117.133C1001.8 115.329 998.162 112.898 995.039 109.805C991.961 106.689 989.521 103.036 987.72 98.8695C985.919 94.6689 985.018 90.1828 985.018 85.4228V33.7027ZM890.843 103.504C892.28 103.504 893.614 103.778 894.856 104.337C896.099 104.862 897.17 105.581 898.094 106.506C899.017 107.419 899.736 108.504 900.249 109.748C900.773 110.992 901.035 112.316 901.035 113.709C901.035 115.158 900.773 116.517 900.249 117.795C899.736 119.039 899.017 120.112 898.094 121.037C897.17 121.962 896.099 122.681 894.856 123.206C893.614 123.754 892.28 124.05 890.843 124.05C889.441 124.05 888.096 123.765 886.819 123.206C885.577 122.681 884.482 121.962 883.513 121.037C882.601 120.112 881.86 119.039 881.302 117.795C880.777 116.517 880.515 115.158 880.515 113.709C880.515 112.316 880.777 110.992 881.302 109.748C881.86 108.504 882.601 107.419 883.513 106.506C884.482 105.581 885.577 104.862 886.819 104.337C888.096 103.778 889.441 103.504 890.843 103.504Z"
     fill="#1059CE"
     id="path428"
     style="fill:#faf9f5;fill-opacity:1" />
  <path
     d="M96.6827 113.467C91.4125 118.005 85.5098 121.488 78.9747 123.915C72.4396 126.343 65.6672 127.557 58.6578 127.557C53.2822 127.557 48.091 126.845 43.0841 125.42C38.1301 124.048 33.4662 122.095 29.092 119.562C24.7703 116.977 20.8173 113.889 17.2335 110.301C13.6498 106.712 10.5668 102.754 7.98427 98.4269C5.45455 94.0473 3.47833 89.377 2.05538 84.4164C0.685112 79.403 0 74.2049 0 68.8221C0 63.4396 0.685112 58.242 2.05538 53.2289C3.47833 48.2153 5.45455 43.5446 7.98427 39.2174C10.5668 34.8378 13.6498 30.8537 17.2335 27.2651C20.8173 23.6766 24.7703 20.6159 29.092 18.083C33.4662 15.4973 38.1301 13.5182 43.0841 12.1459C48.091 10.7214 53.2822 10.0092 58.6578 10.0092C65.6672 10.0092 72.4396 11.223 78.9747 13.6507C85.5098 16.0253 91.4125 19.5081 96.6827 24.0992L84.6667 43.8882C81.3465 40.2997 77.4201 37.5555 72.8875 35.6557C68.3551 33.703 63.6118 32.7267 58.6578 32.7267C53.651 32.7267 48.9606 33.6766 44.5863 35.5764C40.212 37.4763 36.3909 40.0622 33.1234 43.334C29.8558 46.5531 27.2734 50.3791 25.3761 54.8118C23.4788 59.1918 22.5303 63.8619 22.5303 68.8221C22.5303 73.7827 23.4788 78.453 25.3761 82.833C27.2734 87.1605 29.8558 90.9601 33.1234 94.2317C36.3909 97.5038 40.212 100.09 44.5863 101.99C48.9606 103.889 53.651 104.839 58.6578 104.839C63.6118 104.839 68.3551 103.889 72.8875 101.99C77.4201 100.037 81.3465 97.2665 84.6667 93.678L96.6827 113.467Z"
     fill="#131212"
     id="path430"
     style="fill:#faf9f5;fill-opacity:1" />
  <path
     d="M353.53 125.102H329.26L285.543 50.379V125.102H262.855V11.5921H287.124L330.841 86.3948V11.5921H353.53V125.102Z"
     fill="#131212"
     id="path432"
     style="fill:#faf9f5;fill-opacity:1" />
  <path
     d="M367.917 45.6296C367.917 40.933 368.813 36.5265 370.605 32.4101C372.397 28.294 374.821 24.7056 377.878 21.6448C380.988 18.5313 384.598 16.0776 388.709 14.2837C392.82 12.4893 397.22 11.5921 401.911 11.5921H453.928V34.3103H401.911C400.33 34.3103 398.854 34.6006 397.484 35.1812C396.113 35.7618 394.901 36.5799 393.847 37.6355C392.846 38.6377 392.055 39.825 391.476 41.1974C390.896 42.569 390.606 44.0467 390.606 45.6301C390.606 47.2133 390.896 48.7173 391.476 50.1421C392.056 51.5141 392.846 52.728 393.847 53.7836C394.901 54.7858 396.113 55.5772 397.484 56.1578C398.854 56.7384 400.33 57.0289 401.911 57.0289H424.599C429.29 57.0289 433.69 57.9257 437.801 59.7197C441.965 61.4612 445.575 63.8886 448.632 67.0018C451.741 70.0628 454.166 73.678 455.905 77.8475C457.697 81.9632 458.592 86.3694 458.592 91.0662C458.592 95.7625 457.697 100.169 455.905 104.285C454.166 108.401 451.741 112.016 448.632 115.129C445.575 118.191 441.965 120.618 437.801 122.413C433.69 124.206 429.29 125.103 424.599 125.103H374.242V102.386H424.599C426.18 102.386 427.656 102.096 429.026 101.515C430.396 100.935 431.582 100.144 432.584 99.1409C433.638 98.0853 434.455 96.8715 435.034 95.4998C435.614 94.1274 435.904 92.6498 435.904 91.0667C435.904 89.4838 435.614 88.0061 435.034 86.6337C434.454 85.2618 433.638 84.0746 432.584 83.072C431.582 82.0164 430.396 81.1983 429.026 80.6181C427.656 80.0375 426.18 79.7472 424.599 79.7472H401.911C397.22 79.7472 392.82 78.8498 388.709 77.0552C384.598 75.2612 380.988 72.8341 377.878 69.7738C374.821 66.6599 372.397 63.045 370.605 58.9289C368.813 54.7604 367.917 50.3277 367.917 45.6307V45.6296Z"
     fill="#131212"
     id="path434"
     style="fill:#faf9f5;fill-opacity:1" />
  <path
     d="M173.012 2.2463e-08C162.409 0.000139291 151.911 1.78084 142.116 5.24058C132.321 8.70032 123.421 13.7713 115.924 20.1639C108.427 26.5565 102.481 34.1456 98.4235 42.4979C94.3664 50.8502 92.2784 59.8022 92.2786 68.8426C92.2783 87.1003 100.784 104.61 115.924 117.521C131.065 130.431 151.6 137.684 173.012 137.684C183.614 137.685 194.112 135.904 203.908 132.445C213.703 128.985 222.604 123.914 230.101 117.522C237.598 111.129 243.545 103.54 247.602 95.1876C251.659 86.8352 253.747 77.8831 253.747 68.8426C253.748 59.8019 251.659 50.8498 247.602 42.4973C243.545 34.1449 237.598 26.5555 230.101 20.1629C222.604 13.7702 213.704 8.69929 203.908 5.23971C194.113 1.78014 183.614 -0.00023091 173.012 2.2463e-08ZM174.236 15.5136C187.931 15.5141 201.064 20.9617 210.747 30.658C220.43 40.3543 225.87 53.505 225.87 67.2172C225.869 80.9287 220.429 94.0786 210.746 103.774C201.063 113.47 187.93 118.917 174.236 118.917C160.542 118.917 147.409 113.471 137.725 103.775C128.041 94.0795 122.601 80.9293 122.6 67.2172C122.6 60.4273 123.935 53.7039 126.53 47.4309C129.125 41.1578 132.929 35.4579 137.724 30.6567C142.518 25.8556 148.211 22.0472 154.476 19.4489C160.741 16.8507 167.455 15.5134 174.236 15.5136Z"
     fill="#131212"
     id="path436"
     style="fill:#faf9f5;fill-opacity:1" />
</svg>
