<?xml version="1.0" encoding="UTF-8" standalone="no"?>
<!-- Created with Inkscape (http://www.inkscape.org/) -->

<svg
   width="178"
   height="32"
   viewBox="0 0 175.09967 33.766563"
   version="1.1"
   id="svg15389"
   xml:space="preserve"
   xmlns="http://www.w3.org/2000/svg"
   xmlns:svg="http://www.w3.org/2000/svg"><defs
     id="defs15386" /><g
     id="layer1"
     transform="translate(-13.718045,-95.991476)"><path
       style="fill:#faf9f5;stroke-width:0.116037;fill-opacity:1"
       d="m 126.56397,129.74241 -0.46415,-0.0156 -1.01815,-0.0981 -1.01816,-0.0981 -0.92962,-0.23137 -0.92962,-0.23137 -0.68972,-0.27858 -0.68971,-0.27859 -0.89153,-0.5076 -0.89154,-0.50759 -0.91772,-0.86116 -0.91772,-0.86116 -0.50331,-0.70534 -0.50331,-0.70534 -0.47171,-0.94533 -0.47171,-0.94532 -0.28593,-0.98671 -0.28594,-0.98671 -0.1322,-0.96549 -0.13219,-0.96549 0.005,-1.5699 0.005,-1.56989 0.18226,-1.04434 0.18226,-1.04433 0.38244,-1.12068 0.38243,-1.12068 0.51236,-0.89687 0.51236,-0.89686 0.64225,-0.76553 0.64225,-0.76552 0.69218,-0.56159 0.69217,-0.56159 0.75424,-0.43976 0.75424,-0.43976 0.9283,-0.35983 0.92829,-0.35982 0.69627,-0.1738 0.69627,-0.1738 1.36339,-0.12688 1.36339,-0.12688 1.33415,0.12416 1.33416,0.12416 0.7255,0.16847 0.7255,0.16848 0.63872,0.21999 0.63873,0.22 0.75372,0.38004 0.75371,0.38004 0.63821,0.43296 0.6382,0.43296 0.70364,0.68252 0.70363,0.68252 0.48268,0.65811 0.48267,0.6581 0.45702,0.9084 0.45701,0.90839 0.29263,0.92829 0.29263,0.9283 0.1527,0.69622 0.15272,0.69622 -0.009,2.43678 -0.009,2.43677 -0.29822,1.11091 -0.29822,1.11092 -0.37276,0.89541 -0.37277,0.89542 -0.57447,0.88001 -0.57449,0.88002 -0.60212,0.63963 -0.60211,0.63963 -0.73565,0.55912 -0.73567,0.55912 -1.08917,0.53336 -1.08918,0.53336 -1.11407,0.28261 -1.11406,0.28261 -1.23843,0.11744 -1.23843,0.11744 -0.46415,-0.0156 z m 0.12067,-4.98547 1.04896,0.0117 0.69159,-0.18009 0.69159,-0.18009 0.52181,-0.30574 0.52182,-0.30574 0.52493,-0.53893 0.52492,-0.53892 0.36824,-0.69087 0.36822,-0.69086 0.23675,-0.8662 0.23673,-0.8662 0.10405,-1.21839 0.10405,-1.21839 -0.10132,-1.18751 -0.10132,-1.18751 -0.11982,-0.55304 -0.11982,-0.55305 -0.24981,-0.6382 -0.24981,-0.6382 -0.36662,-0.58019 -0.36663,-0.58018 -0.46858,-0.42178 -0.46859,-0.42177 -0.50919,-0.2984 -0.50919,-0.29841 -0.75266,-0.17739 -0.75267,-0.1774 -0.65138,-0.002 -0.65137,-0.002 -0.62504,0.11665 -0.62503,0.11665 -0.71463,0.34955 -0.71464,0.34955 -0.64022,0.69152 -0.64023,0.69152 -0.35417,0.72788 -0.35418,0.72788 -0.17468,0.68437 -0.17469,0.68437 -0.13185,1.25925 -0.13185,1.25925 0.13553,1.30541 0.13553,1.30542 0.17659,0.68617 0.17658,0.68618 0.38699,0.76845 0.38699,0.76846 0.52595,0.58499 0.52596,0.58498 0.68814,0.36678 0.68813,0.36677 0.45049,0.10576 0.45048,0.10575 1.04897,0.0117 z m 26.03436,4.92966 -1.32312,0.056 -0.98632,-0.10816 -0.98631,-0.10817 -1.04433,-0.29423 -1.04434,-0.29423 -0.84382,-0.39757 -0.84383,-0.39758 -0.66349,-0.43964 -0.66347,-0.43965 -0.78983,-0.74438 -0.78982,-0.74438 -0.67053,-1.00245 -0.67053,-1.00245 -0.38027,-0.91346 -0.38027,-0.91345 -0.28674,-1.11092 -0.28675,-1.11091 -0.0649,-1.62451 -0.0649,-1.62452 0.13546,-1.04433 0.13546,-1.04434 0.24085,-0.97853 0.24084,-0.97854 0.38848,-0.92111 0.38848,-0.92112 0.48991,-0.81085 0.48994,-0.81085 0.86301,-0.9174 0.86302,-0.91739 0.94361,-0.61594 0.94361,-0.61593 0.81704,-0.36657 0.81704,-0.36658 0.92351,-0.22851 0.92352,-0.22851 1.2764,-0.13013 1.27641,-0.13012 1.04433,0.0776 1.04433,0.0776 0.83337,0.15584 0.83337,0.15584 0.73313,0.22709 0.73313,0.2271 0.67856,0.30081 0.67856,0.3008 0.79111,0.52593 0.79112,0.52593 0.85896,0.91308 0.85895,0.91308 0.48687,0.97013 0.48685,0.97012 0.23049,0.91785 0.23047,0.91785 v 0.5036 0.5036 h -3.16777 -3.16776 l -0.24918,-0.84126 -0.24918,-0.84127 -0.33868,-0.53064 -0.33867,-0.53065 -0.52665,-0.43154 -0.52663,-0.43154 -0.67832,-0.24022 -0.67832,-0.24023 -0.92829,-0.0593 -0.9283,-0.0593 -0.75038,0.19244 -0.75038,0.19245 -0.55362,0.35525 -0.55361,0.35525 -0.55259,0.60735 -0.5526,0.60735 -0.38166,0.77311 -0.38167,0.77311 -0.24761,0.90009 -0.24761,0.90009 -0.009,2.08866 -0.009,2.08867 0.26476,0.96842 0.26476,0.96842 0.2992,0.59808 0.29921,0.59807 0.44182,0.59158 0.44181,0.59158 0.61874,0.41066 0.61874,0.41066 0.63025,0.18714 0.63025,0.18714 0.93625,-10e-4 0.93624,-0.001 0.58019,-0.15498 0.58018,-0.15498 0.46415,-0.2404 0.46415,-0.2404 0.53955,-0.56055 0.53955,-0.56055 0.34402,-0.6541 0.34403,-0.6541 0.20226,-0.82537 0.20227,-0.82537 h 3.18073 3.18072 l -0.0557,0.26109 -0.0557,0.26108 -0.13449,0.69622 -0.1345,0.69622 -0.34524,0.98632 -0.34525,0.98631 -0.35881,0.6382 -0.3588,0.63821 -0.43026,0.58775 -0.43024,0.58776 -0.75166,0.68865 -0.75167,0.68865 -0.90127,0.51554 -0.90127,0.51554 -0.90295,0.31953 -0.90296,0.31953 -0.91969,0.17446 -0.91969,0.17446 -1.32312,0.056 z m -135.374801,-0.53595 -3.626154,0.0307 V 112.58642 95.991476 h 11.661713 11.661714 v 3.07498 3.074984 h -8.00655 -8.006549 v 3.82922 3.82922 h 6.904198 6.904199 v 2.8429 2.84291 h -6.903272 -6.90327 l -0.02994,6.81717 -0.02994,6.81717 z m 24.74488,0.0274 H 38.433915 V 112.58477 95.991486 h 7.895086 7.895086 l 1.109044,0.12367 1.109045,0.12366 0.88802,0.22562 0.888019,0.22563 0.978003,0.46755 0.978003,0.46756 0.712706,0.50857 0.712705,0.50858 0.646291,0.69807 0.646291,0.698074 0.426538,0.70216 0.426538,0.70216 0.332461,0.91096 0.33246,0.91096 0.187772,0.97586 0.187771,0.97586 v 1.39244 1.39244 l -0.185979,0.96641 -0.185978,0.96641 -0.321807,0.90938 -0.321805,0.90939 -0.397227,0.66996 -0.397228,0.66997 -0.805632,0.85635 -0.805631,0.85636 -0.872094,0.57252 -0.872093,0.57252 -1.049143,0.40626 -1.049144,0.40626 -0.870277,0.18967 -0.870277,0.18966 -5.018598,0.0506 -5.018598,0.0506 v 5.96723 5.96722 z m 7.687448,-17.66374 4.032284,-0.0445 0.721077,-0.24131 0.721075,-0.24131 0.507018,-0.29714 0.507018,-0.29713 0.438507,-0.48537 0.438506,-0.48538 0.218434,-0.4938 0.218435,-0.49381 0.138863,-0.8932 0.138863,-0.8932 -0.132241,-0.90731 -0.132241,-0.9073 -0.249075,-0.52988 -0.249073,-0.52989 -0.449611,-0.51078 -0.44961,-0.51079 -0.670807,-0.32077 -0.670806,-0.32077 -0.580184,-0.17547 -0.580185,-0.17547 -3.974266,-0.0516 -3.974265,-0.0516 v 4.95112 4.95113 z m 35.855417,17.63495 -8.905836,0.0475 V 112.59413 95.991506 h 8.334507 8.334507 l 1.267551,0.12738 1.26755,0.12737 1.102351,0.27608 1.102351,0.27608 0.986314,0.49448 0.986311,0.49448 0.7563,0.75559 0.7563,0.75559 0.42251,0.870284 0.4225,0.87028 0.19149,0.86529 0.19148,0.86529 0.004,1.29701 0.004,1.29702 -0.13665,0.6806 -0.13664,0.6806 -0.45218,0.94556 -0.45218,0.94556 -0.75856,0.74745 -0.75856,0.74745 -0.756366,0.44234 -0.756367,0.44234 -0.05501,0.089 -0.05501,0.089 0.436207,0.1396 0.436207,0.1396 0.928299,0.47175 0.9283,0.47175 0.87334,0.87747 0.87333,0.87747 0.49692,1.00442 0.49691,1.00442 0.22373,1.08424 0.22372,1.08425 v 1.16037 1.16037 l -0.21724,1.04433 -0.21724,1.04433 -0.30321,0.68122 -0.3032,0.68122 -0.51335,0.7194 -0.51335,0.7194 -0.69368,0.64222 -0.69367,0.64222 -0.94028,0.54234 -0.940266,0.54235 -1.188956,0.39322 -1.188957,0.39322 -1.102351,0.20349 -1.102351,0.20349 -8.905836,0.0475 z m 3.016961,-5.6862 4.612469,-0.0457 0.732572,-0.20689 0.732573,-0.2069 0.514198,-0.28739 0.514198,-0.28739 0.511259,-0.58445 0.511258,-0.58444 0.198502,-0.63109 0.198501,-0.63109 -0.05215,-1.18266 -0.05215,-1.18266 -0.181445,-0.4995 -0.181446,-0.49949 -0.330489,-0.47752 -0.330491,-0.47753 -0.580184,-0.3692 -0.580185,-0.36921 -0.589734,-0.19412 -0.589733,-0.19413 -0.976765,-0.1123 -0.976766,-0.11229 -3.858228,-9.3e-4 -3.858229,-8.3e-4 v 4.59172 4.59173 z m -0.965701,-14.01129 h 3.646767 l 0.894217,-0.12437 0.894216,-0.12437 0.593651,-0.26349 0.593651,-0.26349 0.379396,-0.32059 0.379396,-0.32059 0.289973,-0.4948 0.289974,-0.4948 0.130731,-0.91442 0.130731,-0.91442 -0.138855,-0.65633 -0.138855,-0.65633 -0.348722,-0.52647 -0.348722,-0.52648 -0.539348,-0.35724 -0.539348,-0.35725 -0.585434,-0.19441 -0.585434,-0.1944 -4.322377,-0.0427 -4.322376,-0.0427 v 3.89485 3.89485 z m 21.707296,19.72628 h -3.30705 V 112.58477 95.991486 h 3.30705 3.30705 v 16.593284 16.59328 z m 59.06281,0 h -3.30705 V 112.58477 95.991486 h 3.30633 3.30632 l 0.0297,8.835274 0.0297,8.83528 4.0987,-4.25182 4.09871,-4.25181 3.90784,10e-4 3.90785,0.001 -1.21839,1.19262 -1.21839,1.19263 -3.29676,3.20857 -3.29675,3.20857 5.0083,7.53724 5.0083,7.53725 v 0.07 0.07 h -3.93735 -3.93735 l -0.22332,-0.3191 -0.22331,-0.3191 -2.98722,-4.87355 -2.98723,-4.87355 -0.14897,-0.15645 -0.14898,-0.15645 -1.23185,1.18648 -1.23185,1.18648 v 4.16262 4.16262 h -3.30705 z"
       id="path16685" /></g></svg>
