<?xml version="1.0" encoding="UTF-8" standalone="no"?>
<!-- Created with Inkscape (http://www.inkscape.org/) -->

<svg
   version="1.1"
   id="svg824"
   width="941.21472"
   height="941.21472"
   viewBox="0 0 941.21472 941.21472"
   sodipodi:docname="icon.svg"
   inkscape:version="1.1.2 (0a00cf5339, 2022-02-04)"
   xmlns:inkscape="http://www.inkscape.org/namespaces/inkscape"
   xmlns:sodipodi="http://sodipodi.sourceforge.net/DTD/sodipodi-0.dtd"
   xmlns="http://www.w3.org/2000/svg"
   xmlns:svg="http://www.w3.org/2000/svg">
  <defs
     id="defs828" />
  <sodipodi:namedview
     id="namedview826"
     pagecolor="#ffffff"
     bordercolor="#666666"
     borderopacity="1.0"
     inkscape:pageshadow="2"
     inkscape:pageopacity="0.0"
     inkscape:pagecheckerboard="0"
     showgrid="false"
     fit-margin-top="0"
     fit-margin-left="0"
     fit-margin-right="0"
     fit-margin-bottom="0"
     inkscape:zoom="0.59097222"
     inkscape:cx="450.95182"
     inkscape:cy="450.95182"
     inkscape:window-width="2160"
     inkscape:window-height="1301"
     inkscape:window-x="0"
     inkscape:window-y="26"
     inkscape:window-maximized="1"
     inkscape:current-layer="g830" />
  <g
     inkscape:groupmode="layer"
     inkscape:label="Image"
     id="g830"
     transform="translate(-249.48297,-249.39935)">
    <circle
       style="fill:#011627;fill-opacity:1;stroke-width:2;paint-order:fill markers stroke;stop-color:#000000"
       id="path1139"
       cx="720.09033"
       cy="720.00671"
       r="470.60736"
       inkscape:export-filename="/home/nubis/asami/pwa/src/assets/favicon.png"
       inkscape:export-xdpi="20.399172"
       inkscape:export-ydpi="20.399172" />
    <path
       style="fill:#fafafb;fill-opacity:1;stroke-width:1"
       d="m 877.25166,881.84853 -0.0339,-121.76 -1.53357,1.92 c -0.84346,1.056 -4.94944,6.528 -9.12442,12.16 -17.39289,23.46278 -39.52608,48.30438 -77.27347,86.72941 -10.208,10.39123 -23.672,24.11891 -29.92,30.50605 l -11.36,11.61286 v -38.52864 -38.52864 l 18.01235,-19.17555 c 48.40391,-51.52954 72.83258,-80.91149 89.23488,-107.32864 1.91002,-3.07623 3.47277,-5.74023 3.47277,-5.92 0,-0.17978 -26.9216,-0.32685 -59.82579,-0.32685 h -59.82579 l -0.20378,123.04 c -0.20256,122.34682 -0.21133,123.07424 -1.55059,129.12 -6.27136,28.31034 -22.6672,47.33597 -42.96685,49.85857 -7.02618,0.8732 -57.11961,-1.0577 -58.30943,-2.2475 -0.17298,-0.1729 -0.32424,-5.98822 -0.33614,-12.92275 -0.0194,-11.29523 0.13167,-13.13779 1.45037,-17.6921 4.26931,-14.74476 14.07578,-25.39558 25.60275,-27.80736 2.17927,-0.45593 6.68794,-0.56064 12.59264,-0.29228 10.94234,0.49715 12.53978,0.0778 14.04653,-3.68807 0.88614,-2.21465 1.00608,-8.7696 1.00608,-54.98144 V 823.12853 H 662.59529 634.7843 l -0.29834,2.08 c -0.16409,1.144 -0.75494,7.408 -1.31299,13.92 -3.21226,37.48429 -12.23583,74.1943 -26.42785,107.51501 -8.72664,20.48877 -14.24128,27.70637 -25.13882,32.90169 -3.96731,1.89146 -4.5321,1.9833 -12.19319,1.9833 h -8.0332 l -5.00686,-2.47456 c -6.27671,-3.10208 -12.3757,-8.9888 -16.66546,-16.08544 -1.70222,-2.816 -3.09508,-5.408 -3.09524,-5.76 -1.7e-4,-0.352 2.74932,-4.81984 6.10998,-9.92858 7.76769,-11.80806 14.94554,-24.6567 20.37466,-36.47142 14.53344,-31.62733 20.40283,-58.65485 23.62736,-108.8 1.77981,-27.67795 2.05993,-44.96768 2.36674,-146.08 l 0.32544,-107.36 h -43.58529 -43.58528 v 11.84 11.84 h 29.12 29.12 v 118.72 118.72 h -23.36 -23.36 v -7.68 -7.68 h -5.76 -5.76 v 16.59725 16.59718 l 19.04,0.21722 c 18.07832,0.20627 19.22506,0.29126 22.70385,1.68275 10.47419,4.18957 18.42891,14.04397 22.66345,28.07578 1.48423,4.9182 1.73667,7.06572 1.99721,16.98982 l 0.29822,11.36 h -33.35136 -33.35137 v 47.04 47.04 h -24.31585 -24.31584 l -0.16416,-46.88 -0.16415,-46.88 -37.68835,-0.16518 -37.68836,-0.16512 0.35016,-10.71488 c 0.41696,-12.75898 1.59299,-18.05978 5.99795,-27.03482 4.99033,-10.16774 13.63963,-17.71245 22.70014,-19.80128 1.59409,-0.36749 12.28656,-0.65421 24.72846,-0.6631 l 21.92,-0.0156 v -16.64 -16.64 h -6.08 -6.08 v 7.68 7.68 h -23.68 -23.68 v -118.72002 -118.72 h 29.76 29.76 V 560.41382 548.5791 l -36.32,-0.16528 -36.32,-0.16529 0.0682,-9.28 c 0.10787,-14.67041 2.7038,-24.61196 8.83478,-33.83428 5.21379,-7.84265 12.92704,-13.33593 20.78434,-14.80234 1.89605,-0.35386 12.2929,-0.64338 23.10413,-0.64338 h 19.65676 l 0.37904,-6.88 c 0.81109,-14.72249 5.90032,-27.36515 14.51625,-36.06133 7.82798,-7.90087 13.86648,-10.17867 26.98385,-10.17867 h 6.95265 v 26.56 26.56 h 118.4 118.4 v 71.04287 71.04287 l 68.96,-0.16287 68.96,-0.16287 0.16486,-39.84 0.1648,-39.84 h -64.6448 -64.64486 v -31.03694 -31.03694 l 64.48,-0.16306 64.48,-0.16306 0.16717,-26.48181 0.16717,-26.48181 8.79283,0.31349 c 7.08633,0.25265 9.53811,0.59735 12.63283,1.77609 15.12339,5.7603 25.41197,21.73314 27.82253,43.19404 0.35584,3.168 0.64934,6.25737 0.65222,6.86526 0.006,1.03634 3.21095,1.11615 51.41408,1.28 l 51.40881,0.17474 5.5718,2.76125 c 12.9441,6.4147 21.9981,19.15357 25.7849,36.27875 0.5448,2.464 1.1462,8.584 1.3364,13.6 l 0.3457,9.12 h -67.9282 -67.92824 v 40 40 h 61.46014 c 60.3311,0 61.5319,0.0242 65.3674,1.31624 9.0389,3.04498 16.6339,10.32325 21.6676,20.76376 4.5182,9.37146 5.7643,15.05939 6.2041,28.32 l 0.3662,11.04 h -68.8927 c -37.89101,0 -68.89274,0.2448 -68.89274,0.54394 0,0.2992 1.656,3.17785 3.68,6.39699 16.1993,25.76512 43.42244,57.56793 80.89074,94.49907 15.1495,14.93222 43.4794,41.44979 46.6707,43.68512 1.2,0.84051 1.2385,2.00096 1.2385,37.36448 0,22.64986 -0.2296,36.41613 -0.6051,36.28371 -1.7143,-0.60441 -32.6496,-29.41382 -61.4749,-57.25024 -34.41402,-33.23353 -64.25069,-64.78771 -81.82208,-86.53216 l -5.85786,-7.24902 -0.006,97.16902 c -0.006,104.20397 0.023,103.2521 -3.22656,113.80909 -4.9344,16.03104 -16.56128,28.33037 -29.28115,30.97487 -1.86535,0.3878 -6.54535,0.7051 -10.4,0.7051 h -7.00851 l -0.0346,-121.75997 z m -182.3657,-156.96 v -44.48 h -30.7401 c -24.03392,0 -30.79385,0.17453 -30.98657,0.8 -0.13558,0.44 -0.40686,20.456 -0.60285,44.48 l -0.35636,43.68 h 31.34297 31.34291 z m -176.78988,-0.48 0.17013,-17.76 h -40.97013 -40.97012 v 17.49331 c 0,9.62138 0.19413,17.68749 0.4314,17.92474 0.23727,0.23731 18.59727,0.35731 40.8,0.26669 l 40.3686,-0.16474 z m 0,-82.24 -0.17012,-17.76 h -40.64 -40.64 l -0.17012,17.76 -0.17013,17.76 h 40.98025 40.98025 z m 176.78988,-54.24614 v -43.20615 l -30.88,0.16615 -30.88,0.16614 -0.16451,43.04 -0.1645,43.04 h 31.04453 31.04448 z"
       id="path1064"
       sodipodi:nodetypes="ccsssscccsssscsssssssssscccssssscssssssccccccccccccccccccsssscccccccccccsssscccccccccccccccccsssscssscccccccccccccccccccssscscssscccccsssscsscssssssccssscccccsssccccccccssscccccccccccccccccccc" />
  </g>
</svg>
