<?xml version="1.0" encoding="UTF-8" standalone="no"?>
<svg
   width="178"
   height="32"
   viewBox="0 0 240 16"
   fill="none"
   version="1.1"
   id="svg293"
   xmlns="http://www.w3.org/2000/svg"
   xmlns:svg="http://www.w3.org/2000/svg">
  <defs
     id="defs297" />
  <path
     d="M0.916595 15.4415H0.992043C1.55689 15.4415 1.90864 15.0917 1.90864 14.5272V10.0014C1.90864 9.68615 2.13804 9.45732 2.45411 9.45732H3.9539C4.26997 9.45732 4.49937 9.68615 4.49937 10.0014V10.0391C4.49937 10.6025 4.8501 10.9534 5.41596 10.9534H5.45369C5.76976 10.9534 6.00018 11.1822 6.00018 11.4985V13.0322C6.00018 13.5956 6.35091 13.9465 6.91677 13.9465H6.9545C7.34397 13.9465 7.42554 14.2221 7.42554 14.454V14.5292C7.42554 15.0927 7.85172 15.5178 8.41656 15.5178H8.49201C9.05685 15.5178 9.48304 15.0927 9.48304 14.5292V14.454C9.48304 13.8905 9.05685 13.4654 8.49201 13.4654H8.41656C8.1841 13.4654 7.9078 13.3841 7.9078 12.9956V11.4619C7.9078 10.8985 7.55706 10.5476 6.9912 10.5476H6.95348C6.63741 10.5476 6.40801 10.3187 6.40801 10.0035C6.40801 9.68819 6.63741 9.45936 6.95348 9.45936H6.9912C7.55604 9.45936 7.9078 9.1095 7.9078 8.54505V8.50742C7.9078 8.19214 8.1372 7.96229 8.45327 7.96229H8.49099C9.05583 7.96229 9.40759 7.61243 9.40759 7.04798V2.48458C9.40759 1.92114 9.05685 1.57027 8.49099 1.57027H8.45327C8.1372 1.57027 7.9078 1.34144 7.9078 1.02616V0.988527C7.9078 0.425093 7.55706 0.0742188 6.9912 0.0742188H0.953299C0.392535 0.0752358 0 0.465775 0 1.02616V14.5272C0 15.0906 0.350733 15.4415 0.916595 15.4415ZM6.95246 1.97708C7.26853 1.97708 7.49793 2.20591 7.49793 2.52221V7.01035C7.49793 7.32563 7.26853 7.55446 6.95246 7.55446H2.45309C2.13702 7.55446 1.90762 7.32563 1.90762 7.01035V2.52221C1.90762 2.20693 2.13702 1.97708 2.45309 1.97708H6.95246Z"
     fill="#E4E1DA"
     id="path255"
     style="fill:#ffffff" />
  <path
     d="M14.4596 14.0208C14.6911 14.0208 14.9684 14.1021 14.9684 14.4906V14.5283C14.9684 15.0917 15.3191 15.4426 15.885 15.4426H20.4588C21.0236 15.4426 21.3754 15.0927 21.3754 14.5283V14.4906C21.3754 14.1021 21.6517 14.0208 21.8841 14.0208H21.9596C22.5244 14.0208 22.9506 13.5957 22.9506 13.0322V12.957C22.9506 12.7251 23.0322 12.4495 23.4216 12.4495H23.4594C24.0242 12.4495 24.376 12.0996 24.376 11.5352V3.98066C24.376 3.41723 24.0252 3.06636 23.4594 3.06636H23.4216C23.0322 3.06636 22.9506 2.79074 22.9506 2.55886V2.4836C22.9506 1.92017 22.5244 1.49505 21.9596 1.49505H21.8841C21.6517 1.49505 21.3754 1.41369 21.3754 1.02518V0.987551C21.3754 0.424117 21.0246 0.0732422 20.4588 0.0732422H15.885C15.3201 0.0732422 14.9684 0.4231 14.9684 0.987551V1.02518C14.9684 1.41369 14.6921 1.49505 14.4596 1.49505H14.3842C13.8193 1.49505 13.3931 1.92017 13.3931 2.4836V2.55886C13.3931 2.79074 13.3116 3.06636 12.9221 3.06636H12.8844C12.3195 3.06636 11.9678 3.41621 11.9678 3.98066V11.5352C11.9678 12.0986 12.3185 12.4495 12.8844 12.4495H12.9221C13.3116 12.4495 13.3931 12.7251 13.3931 12.957V13.0322C13.3931 13.5957 13.8193 14.0208 14.3842 14.0208H14.4596ZM13.8764 4.01829C13.8764 3.62979 14.1527 3.54843 14.3852 3.54843H14.4606C15.0255 3.54843 15.4517 3.12331 15.4517 2.55988V2.48462C15.4517 2.25273 15.5332 1.97712 15.9227 1.97712H20.4221C20.8115 1.97712 20.8931 2.25273 20.8931 2.48462V2.55988C20.8931 3.12331 21.3193 3.54843 21.8841 3.54843H21.9596C22.192 3.54843 22.4683 3.62979 22.4683 4.01829V11.4985C22.4683 11.887 22.192 11.9684 21.9596 11.9684H21.8841C21.3193 11.9684 20.8931 12.3935 20.8931 12.957V13.0322C20.8931 13.2641 20.8115 13.5397 20.4221 13.5397H15.9227C15.5332 13.5397 15.4517 13.2641 15.4517 13.0322V12.957C15.4517 12.3935 15.0255 11.9684 14.4606 11.9684H14.3852C14.1527 11.9684 13.8764 11.887 13.8764 11.4985V4.01829Z"
     fill="#E4E1DA"
     id="path257"
     style="fill:#ffffff" />
  <path
     d="M38.6051 3.06636H38.5674C38.1779 3.06636 38.0964 2.79074 38.0964 2.55886V2.4836C38.0964 1.92017 37.6702 1.49505 37.1053 1.49505H37.0299C36.7984 1.49505 36.5211 1.41369 36.5211 1.02518V0.987551C36.5211 0.424117 36.1704 0.0732422 35.6045 0.0732422H31.0307C30.4659 0.0732422 30.1141 0.4231 30.1141 0.987551V1.02518C30.1141 1.41369 29.8378 1.49505 29.6054 1.49505H29.5299C28.9651 1.49505 28.5389 1.92017 28.5389 2.4836V2.55886C28.5389 2.79074 28.4573 3.06636 28.0678 3.06636H28.0301C27.4653 3.06636 27.1135 3.41621 27.1135 3.98066V11.5352C27.1135 12.0986 27.4643 12.4495 28.0301 12.4495H28.0678C28.4573 12.4495 28.5389 12.7251 28.5389 12.957V13.0322C28.5389 13.5957 28.9651 14.0208 29.5299 14.0208H29.6054C29.8378 14.0208 30.1141 14.1021 30.1141 14.4906V14.5283C30.1141 15.0917 30.4649 15.4426 31.0307 15.4426H35.6045C36.1694 15.4426 36.5211 15.0927 36.5211 14.5283V14.4906C36.5211 14.1021 36.7974 14.0208 37.0299 14.0208H37.1053C37.6702 14.0208 38.0964 13.5957 38.0964 13.0322V12.957C38.0964 12.7251 38.1779 12.4495 38.5674 12.4495H38.6051C39.17 12.4495 39.5217 12.0996 39.5217 11.5352V3.98066C39.5217 3.41723 39.171 3.06636 38.6051 3.06636ZM37.6141 11.4975C37.6141 11.886 37.3378 11.9674 37.1053 11.9674H37.0299C36.465 11.9674 36.0389 12.3925 36.0389 12.9559V13.0312C36.0389 13.2631 35.9573 13.5387 35.5678 13.5387H31.0684C30.679 13.5387 30.5974 13.2631 30.5974 13.0312V12.9559C30.5974 12.3925 30.1712 11.9674 29.6064 11.9674H29.5309C29.2985 11.9674 29.0222 11.886 29.0222 11.4975V4.01829C29.0222 3.62979 29.2985 3.54843 29.5309 3.54843H29.6064C30.1712 3.54843 30.5974 3.12331 30.5974 2.55988V2.48462C30.5974 2.25273 30.679 1.97712 31.0684 1.97712H35.5678C35.9573 1.97712 36.0389 2.25273 36.0389 2.48462V2.55988C36.0389 3.12331 36.465 3.54843 37.0299 3.54843H37.1053C37.3378 3.54843 37.6141 3.62979 37.6141 4.01829V11.4985V11.4975Z"
     fill="#E4E1DA"
     id="path259"
     style="fill:#ffffff" />
  <path
     d="M50.8134 0.0752762H41.7402C41.1754 0.0752762 40.8236 0.425134 40.8236 0.989585V1.06484C40.8236 1.62828 41.1743 1.97915 41.7402 1.97915H44.7775C45.0936 1.97915 45.323 2.20798 45.323 2.52428V14.5293C45.323 15.0927 45.6737 15.4436 46.2396 15.4436H46.315C46.8799 15.4436 47.2316 15.0937 47.2316 14.5293V2.52225C47.2316 2.20697 47.461 1.97712 47.7781 1.97712H50.8154C51.3803 1.97712 51.732 1.62726 51.732 1.06281V0.987551C51.732 0.424117 51.3813 0.0732422 50.8154 0.0732422L50.8134 0.0752762Z"
     fill="#E4E1DA"
     id="path261"
     style="fill:#ffffff" />
  <path
     d="M62.0858 1.57027H62.0481C61.732 1.57027 61.5026 1.34144 61.5026 1.02616V0.988527C61.5026 0.425093 61.1519 0.0742188 60.586 0.0742188H56.0122C55.4474 0.0742188 55.0956 0.424076 55.0956 0.988527V1.02616C55.0956 1.34144 54.8662 1.57027 54.5501 1.57027H54.5124C53.9476 1.57027 53.5958 1.92013 53.5958 2.48458V5.55092C53.5958 6.11435 53.9466 6.46522 54.5124 6.46522H54.5501C54.8662 6.46522 55.0956 6.69406 55.0956 7.00933V7.04696C55.0956 7.6104 55.4463 7.96127 56.0122 7.96127H57.5497C57.8658 7.96127 58.0952 8.1901 58.0952 8.5064V8.54403C58.0952 9.10746 58.4459 9.45834 59.0118 9.45834H60.5493C60.8654 9.45834 61.0948 9.68717 61.0948 10.0024V12.9945C61.0948 13.3098 60.8654 13.5397 60.5493 13.5397H56.0499C55.7339 13.5397 55.5045 13.3108 55.5045 12.9945V11.4609C55.5045 10.8974 55.1537 10.5466 54.5879 10.5466H54.5124C53.9476 10.5466 53.5958 10.8964 53.5958 11.4609V13.0322C53.5958 13.5956 53.9466 13.9465 54.5124 13.9465H54.5501C54.8662 13.9465 55.0956 14.1753 55.0956 14.4906V14.5282C55.0956 15.0917 55.4463 15.4425 56.0122 15.4425H60.586C61.1508 15.4425 61.5026 15.0927 61.5026 14.5282V14.4906C61.5026 14.1753 61.732 13.9465 62.0481 13.9465H62.0858C62.6506 13.9465 63.0024 13.5966 63.0024 13.0322V9.96482C63.0024 9.40138 62.6517 9.05051 62.0858 9.05051H62.0481C61.732 9.05051 61.5026 8.82168 61.5026 8.5064V8.46877C61.5026 7.90534 61.1519 7.55446 60.586 7.55446H59.0485C58.7324 7.55446 58.503 7.32563 58.503 7.01035V6.97272C58.503 6.40929 58.1523 6.05841 57.5864 6.05841H56.0489C55.7328 6.05841 55.5034 5.82958 55.5034 5.5143V2.52221C55.5034 2.20693 55.7328 1.97708 56.0489 1.97708H60.5483C60.8644 1.97708 61.0938 2.20591 61.0938 2.52221V4.05588C61.0938 4.61932 61.4445 4.97019 62.0104 4.97019H62.0858C62.6506 4.97019 63.0024 4.62034 63.0024 4.05588V2.48458C63.0024 1.92114 62.6517 1.57027 62.0858 1.57027Z"
     fill="#E4E1DA"
     id="path263"
     style="fill:#ffffff" />
  <path
     d="M74.8579 0.0752762H65.7848C65.2199 0.0752762 64.8682 0.425134 64.8682 0.989585V1.06484C64.8682 1.62828 65.2189 1.97915 65.7848 1.97915H68.8221C69.1381 1.97915 69.3675 2.20798 69.3675 2.52428V14.5293C69.3675 15.0927 69.7183 15.4436 70.2841 15.4436H70.3596C70.9244 15.4436 71.2762 15.0937 71.2762 14.5293V2.52225C71.2762 2.20697 71.5056 1.97712 71.8227 1.97712H74.86C75.4248 1.97712 75.7766 1.62726 75.7766 1.06281V0.987551C75.7766 0.424117 75.4258 0.0732422 74.86 0.0732422L74.8579 0.0752762Z"
     fill="#E4E1DA"
     id="path265"
     style="fill:#ffffff" />
  <path
     d="M88.614 3.06636H88.5763C88.1868 3.06636 88.1053 2.79074 88.1053 2.55886V2.4836C88.1053 1.92017 87.6791 1.49505 87.1142 1.49505H87.0388C86.8073 1.49505 86.53 1.41369 86.53 1.02518V0.987551C86.53 0.424117 86.1793 0.0732422 85.6134 0.0732422H81.0396C80.4748 0.0732422 80.123 0.4231 80.123 0.987551V1.02518C80.123 1.41369 79.8467 1.49505 79.6143 1.49505H79.5388C78.974 1.49505 78.5478 1.92017 78.5478 2.4836V2.55886C78.5478 2.79074 78.4662 3.06636 78.0768 3.06636H78.039C77.4742 3.06636 77.1224 3.41621 77.1224 3.98066V11.5352C77.1224 12.0986 77.4732 12.4495 78.039 12.4495H78.0768C78.4662 12.4495 78.5478 12.7251 78.5478 12.957V13.0322C78.5478 13.5957 78.974 14.0208 79.5388 14.0208H79.6143C79.8467 14.0208 80.123 14.1021 80.123 14.4906V14.5283C80.123 15.0917 80.4738 15.4426 81.0396 15.4426H85.6134C86.1783 15.4426 86.53 15.0927 86.53 14.5283V14.4906C86.53 14.1021 86.8063 14.0208 87.0388 14.0208H87.1142C87.6791 14.0208 88.1053 13.5957 88.1053 13.0322V12.957C88.1053 12.7251 88.1868 12.4495 88.5763 12.4495H88.614C89.1789 12.4495 89.5306 12.0996 89.5306 11.5352V3.98066C89.5306 3.41723 89.1799 3.06636 88.614 3.06636ZM87.623 11.4975C87.623 11.886 87.3467 11.9674 87.1142 11.9674H87.0388C86.4739 11.9674 86.0478 12.3925 86.0478 12.9559V13.0312C86.0478 13.2631 85.9662 13.5387 85.5767 13.5387H81.0774C80.6879 13.5387 80.6063 13.2631 80.6063 13.0312V12.9559C80.6063 12.3925 80.1801 11.9674 79.6153 11.9674H79.5398C79.3074 11.9674 79.0311 11.886 79.0311 11.4975V4.01829C79.0311 3.62979 79.3074 3.54843 79.5398 3.54843H79.6153C80.1801 3.54843 80.6063 3.12331 80.6063 2.55988V2.48462C80.6063 2.25273 80.6879 1.97712 81.0774 1.97712H85.5767C85.9662 1.97712 86.0478 2.25273 86.0478 2.48462V2.55988C86.0478 3.12331 86.4739 3.54843 87.0388 3.54843H87.1142C87.3467 3.54843 87.623 3.62979 87.623 4.01829V11.4985V11.4975Z"
     fill="#E4E1DA"
     id="path267"
     style="fill:#ffffff" />
  <path
     d="M94.6917 14.0207C94.9231 14.0207 95.2004 14.1021 95.2004 14.4906V14.5282C95.2004 15.0917 95.5512 15.4425 96.117 15.4425H100.691C101.256 15.4425 101.607 15.0927 101.607 14.5282V14.4906C101.607 14.1021 101.884 14.0207 102.116 14.0207H102.192C102.756 14.0207 103.183 13.5956 103.183 13.0322V12.9569C103.183 12.6213 103.28 12.5247 103.616 12.5247H103.691C104.256 12.5247 104.682 12.0996 104.682 11.5361V11.4609C104.682 10.8974 104.256 10.4723 103.691 10.4723H103.616C103.051 10.4723 102.625 10.8974 102.625 11.4609V11.5361C102.625 11.8717 102.528 11.9684 102.192 11.9684H102.116C101.551 11.9684 101.125 12.3935 101.125 12.9569V13.0322C101.125 13.2641 101.044 13.5397 100.654 13.5397H96.1548C95.7653 13.5397 95.6837 13.2641 95.6837 13.0322V12.9569C95.6837 12.3935 95.2575 11.9684 94.6927 11.9684H94.6172C94.3848 11.9684 94.1085 11.887 94.1085 11.4985V4.01825C94.1085 3.62975 94.3848 3.54839 94.6172 3.54839H94.6927C95.2575 3.54839 95.6837 3.12327 95.6837 2.55984V2.48458C95.6837 2.25269 95.7653 1.97708 96.1548 1.97708H100.654C101.044 1.97708 101.125 2.25269 101.125 2.48458V2.55984C101.125 3.12327 101.551 3.54839 102.116 3.54839H102.192C102.528 3.54839 102.625 3.645 102.625 3.98062V4.05588C102.625 4.61932 103.051 5.04444 103.616 5.04444H103.691C104.256 5.04444 104.682 4.61932 104.682 4.05588V3.98062C104.682 3.41719 104.256 2.99207 103.691 2.99207H103.616C103.28 2.99207 103.183 2.89546 103.183 2.55984V2.48458C103.183 1.92114 102.756 1.49602 102.192 1.49602H102.116C101.884 1.49602 101.607 1.41466 101.607 1.02616V0.988527C101.607 0.425093 101.257 0.0742188 100.691 0.0742188H96.117C95.5522 0.0742188 95.2004 0.424076 95.2004 0.988527V1.02616C95.2004 1.41466 94.9241 1.49602 94.6917 1.49602H94.6162C94.0514 1.49602 93.6252 1.92114 93.6252 2.48458V2.55984C93.6252 2.79172 93.5436 3.06733 93.1541 3.06733H93.1164C92.5516 3.06733 92.1998 3.41719 92.1998 3.98164V11.5361C92.1998 12.0996 92.5506 12.4504 93.1164 12.4504H93.1541C93.5436 12.4504 93.6252 12.7261 93.6252 12.9579V13.0332C93.6252 13.5966 94.0514 14.0217 94.6162 14.0217H94.6917V14.0207Z"
     fill="#E4E1DA"
     id="path269"
     style="fill:#ffffff" />
  <path
     d="M110.949 6.54051H111.024C111.589 6.54051 112.015 6.11539 112.015 5.55196V5.4767C112.015 5.14108 112.112 5.04446 112.449 5.04446H112.524C113.089 5.04446 113.515 4.61934 113.515 4.05591V3.98065C113.515 3.64503 113.612 3.54841 113.948 3.54841H114.024C114.589 3.54841 115.015 3.12329 115.015 2.55986V2.4846C115.015 2.14898 115.112 2.05236 115.448 2.05236H115.524C116.088 2.05236 116.515 1.62725 116.515 1.06381V0.988552C116.515 0.425118 116.088 0 115.524 0H115.448C114.883 0 114.457 0.425118 114.457 0.988552V1.06381C114.457 1.39943 114.36 1.49605 114.024 1.49605H113.948C113.384 1.49605 112.957 1.92117 112.957 2.4846V2.55986C112.957 2.89548 112.861 2.9921 112.524 2.9921H112.449C111.884 2.9921 111.458 3.41722 111.458 3.98065V4.05591C111.458 4.39153 111.361 4.48815 111.024 4.48815H110.949C110.384 4.48815 109.958 4.91326 109.958 5.4767V5.55196C109.958 5.78384 109.876 6.05945 109.487 6.05945H109.449C109.054 6.05945 108.94 5.94555 108.94 5.55196V0.988552C108.94 0.425118 108.59 0.0742431 108.024 0.0742431H107.948C107.383 0.0742431 107.032 0.424101 107.032 0.988552V14.5272C107.032 15.0907 107.382 15.4415 107.948 15.4415H108.024C108.589 15.4415 108.94 15.0917 108.94 14.5272V9.96484C108.94 9.57125 109.054 9.45735 109.449 9.45735H109.487C109.876 9.45735 109.958 9.73296 109.958 9.96484V10.0401C109.958 10.6035 110.384 11.0287 110.949 11.0287H111.024C111.361 11.0287 111.458 11.1253 111.458 11.4609V11.5362C111.458 12.0996 111.884 12.5247 112.449 12.5247H112.524C112.861 12.5247 112.957 12.6213 112.957 12.9569V13.0322C112.957 13.5956 113.384 14.0208 113.948 14.0208H114.024C114.36 14.0208 114.457 14.1174 114.457 14.453V14.5283C114.457 15.0917 114.883 15.5168 115.448 15.5168H115.524C116.088 15.5168 116.515 15.0917 116.515 14.5283V14.453C116.515 13.8896 116.088 13.4644 115.524 13.4644H115.448C115.112 13.4644 115.015 13.3678 115.015 13.0322V12.9569C115.015 12.3935 114.589 11.9684 114.024 11.9684H113.948C113.612 11.9684 113.515 11.8718 113.515 11.5362V11.4609C113.515 10.8975 113.089 10.4723 112.524 10.4723H112.449C112.112 10.4723 112.015 10.3757 112.015 10.0401V9.96484C112.015 9.40141 111.589 8.97629 111.024 8.97629H110.949C110.717 8.97629 110.44 8.89493 110.44 8.50642V7.01038C110.44 6.62187 110.716 6.54051 110.949 6.54051Z"
     fill="#E4E1DA"
     id="path271"
     style="fill:#ffffff" />
  <path
     d="M134.975 2.91688H134.9C134.563 2.91688 134.466 2.82026 134.466 2.48464V2.40938C134.466 1.84595 134.04 1.42083 133.475 1.42083H133.4C133.168 1.42083 132.891 1.33947 132.891 0.950962V0.913332C132.891 0.349898 132.54 -0.000976562 131.974 -0.000976562H127.401C126.836 -0.000976562 126.484 0.348881 126.484 0.913332V0.950962C126.484 1.33947 126.208 1.42083 125.975 1.42083H125.9C125.335 1.42083 124.909 1.84595 124.909 2.40938V2.48464C124.909 2.71652 124.827 2.99214 124.438 2.99214H124.4C123.835 2.99214 123.483 3.342 123.483 3.90645V11.4609C123.483 12.0244 123.834 12.3752 124.4 12.3752H124.438C124.827 12.3752 124.909 12.6509 124.909 12.8827V12.958C124.909 13.5214 125.335 13.9465 125.9 13.9465H125.975C126.208 13.9465 126.484 14.0279 126.484 14.4164V14.454C126.484 15.0175 126.835 15.3684 127.401 15.3684H131.974C132.539 15.3684 132.891 15.0185 132.891 14.454V14.4164C132.891 14.0279 133.167 13.9465 133.4 13.9465H133.475C134.04 13.9465 134.466 13.5214 134.466 12.958V12.8827C134.466 12.5471 134.563 12.4505 134.9 12.4505H134.975C135.54 12.4505 135.966 12.0254 135.966 11.4619V11.3867C135.966 10.8233 135.54 10.3981 134.975 10.3981H134.9C134.335 10.3981 133.909 10.8233 133.909 11.3867V11.4619C133.909 11.7976 133.812 11.8942 133.475 11.8942H133.4C132.835 11.8942 132.409 12.3193 132.409 12.8827V12.958C132.409 13.1899 132.327 13.4655 131.938 13.4655H127.438C127.049 13.4655 126.967 13.1899 126.967 12.958V12.8827C126.967 12.3193 126.541 11.8942 125.976 11.8942H125.901C125.668 11.8942 125.392 11.8128 125.392 11.4243V3.94306C125.392 3.55455 125.668 3.47319 125.901 3.47319H125.976C126.541 3.47319 126.967 3.04807 126.967 2.48464V2.40938C126.967 2.17852 127.049 1.90188 127.438 1.90188H131.938C132.327 1.90188 132.409 2.1775 132.409 2.40938V2.48464C132.409 3.04807 132.835 3.47319 133.4 3.47319H133.475C133.812 3.47319 133.909 3.56981 133.909 3.90543V3.98069C133.909 4.54412 134.335 4.96924 134.9 4.96924H134.975C135.54 4.96924 135.966 4.54412 135.966 3.98069V3.90543C135.966 3.342 135.54 2.91688 134.975 2.91688Z"
     fill="#E4E1DA"
     id="path273"
     style="fill:#ffffff" />
  <path
     d="M149.12 2.99214H149.083C148.693 2.99214 148.612 2.71652 148.612 2.48464V2.40938C148.612 1.84595 148.186 1.42083 147.621 1.42083H147.545C147.313 1.42083 147.036 1.33947 147.036 0.950962V0.913332C147.036 0.349898 146.686 -0.000976562 146.12 -0.000976562H141.546C140.981 -0.000976562 140.63 0.348881 140.63 0.913332V0.950962C140.63 1.33947 140.353 1.42083 140.121 1.42083H140.045C139.48 1.42083 139.054 1.84595 139.054 2.40938V2.48464C139.054 2.71652 138.973 2.99214 138.583 2.99214H138.546C137.981 2.99214 137.629 3.342 137.629 3.90645V11.4609C137.629 12.0244 137.98 12.3752 138.546 12.3752H138.583C138.973 12.3752 139.054 12.6509 139.054 12.8827V12.958C139.054 13.5214 139.48 13.9465 140.045 13.9465H140.121C140.353 13.9465 140.63 14.0279 140.63 14.4164V14.454C140.63 15.0175 140.98 15.3684 141.546 15.3684H146.12C146.685 15.3684 147.036 15.0185 147.036 14.454V14.4164C147.036 14.0279 147.313 13.9465 147.545 13.9465H147.621C148.186 13.9465 148.612 13.5214 148.612 12.958V12.8827C148.612 12.6509 148.693 12.3752 149.083 12.3752H149.12C149.685 12.3752 150.037 12.0254 150.037 11.4609V3.90645C150.037 3.34301 149.686 2.99214 149.12 2.99214ZM148.129 11.4233C148.129 11.8118 147.853 11.8932 147.621 11.8932H147.545C146.98 11.8932 146.554 12.3183 146.554 12.8817V12.957C146.554 13.1889 146.473 13.4645 146.083 13.4645H141.584C141.194 13.4645 141.113 13.1889 141.113 12.957V12.8817C141.113 12.3183 140.687 11.8932 140.122 11.8932H140.046C139.814 11.8932 139.538 11.8118 139.538 11.4233V3.94306C139.538 3.55455 139.814 3.47319 140.046 3.47319H140.122C140.687 3.47319 141.113 3.04807 141.113 2.48464V2.40938C141.113 2.17852 141.194 1.90188 141.584 1.90188H146.083C146.473 1.90188 146.554 2.1775 146.554 2.40938V2.48464C146.554 3.04807 146.98 3.47319 147.545 3.47319H147.621C147.853 3.47319 148.129 3.55455 148.129 3.94306V11.4233Z"
     fill="#E4E1DA"
     id="path275"
     style="fill:#ffffff" />
  <path
     d="M161.089 13.4644H155.052C154.736 13.4644 154.507 13.2356 154.507 12.9193V0.914308C154.507 0.350875 154.156 0 153.59 0H153.515C152.95 0 152.598 0.349858 152.598 0.914308V14.4154C152.598 14.9757 152.991 15.3663 153.552 15.3663H161.088C161.653 15.3663 162.005 15.0164 162.005 14.452V14.3767C162.005 13.8133 161.654 13.4624 161.088 13.4624L161.089 13.4644Z"
     fill="#E4E1DA"
     id="path277"
     style="fill:#ffffff" />
  <path
     d="M172.595 13.4644H166.558C166.242 13.4644 166.013 13.2356 166.013 12.9193V0.914308C166.013 0.350875 165.662 0 165.096 0H165.021C164.456 0 164.104 0.349858 164.104 0.914308V14.4154C164.104 14.9757 164.497 15.3663 165.057 15.3663H172.594C173.159 15.3663 173.511 15.0164 173.511 14.452V14.3767C173.511 13.8133 173.16 13.4624 172.594 13.4624L172.595 13.4644Z"
     fill="#E4E1DA"
     id="path279"
     style="fill:#ffffff" />
  <path
     d="M183.742 0.000121397H176.205C175.644 0.000121397 175.251 0.391677 175.251 0.951043V14.4155C175.251 14.9759 175.644 15.3664 176.205 15.3664H183.742C184.307 15.3664 184.659 15.0165 184.659 14.4521V14.3768C184.659 13.8134 184.308 13.4625 183.742 13.4625H177.705C177.389 13.4625 177.16 13.2337 177.16 12.9174V8.42925C177.16 8.11397 177.389 7.88514 177.705 7.88514H182.242C182.807 7.88514 183.159 7.53528 183.159 6.97083V6.89557C183.159 6.33214 182.808 5.98126 182.242 5.98126H177.705C177.389 5.98126 177.16 5.75243 177.16 5.43715V2.44506C177.16 2.12978 177.389 1.90095 177.705 1.90095H183.742C184.307 1.90095 184.659 1.55109 184.659 0.986639V0.911379C184.659 0.347945 184.308 -0.00292969 183.742 -0.00292969V0.000121397Z"
     fill="#E4E1DA"
     id="path281"
     style="fill:#ffffff" />
  <path
     d="M198.116 2.91688H198.041C197.704 2.91688 197.607 2.82026 197.607 2.48464V2.40938C197.607 1.84595 197.181 1.42083 196.616 1.42083H196.541C196.309 1.42083 196.032 1.33947 196.032 0.950962V0.913332C196.032 0.349898 195.681 -0.000976562 195.115 -0.000976562H190.542C189.977 -0.000976562 189.625 0.348881 189.625 0.913332V0.950962C189.625 1.33947 189.349 1.42083 189.116 1.42083H189.041C188.476 1.42083 188.05 1.84595 188.05 2.40938V2.48464C188.05 2.71652 187.968 2.99214 187.579 2.99214H187.541C186.976 2.99214 186.625 3.342 186.625 3.90645V11.4609C186.625 12.0244 186.975 12.3752 187.541 12.3752H187.579C187.968 12.3752 188.05 12.6509 188.05 12.8827V12.958C188.05 13.5214 188.476 13.9465 189.041 13.9465H189.116C189.349 13.9465 189.625 14.0279 189.625 14.4164V14.454C189.625 15.0175 189.976 15.3684 190.542 15.3684H195.115C195.68 15.3684 196.032 15.0185 196.032 14.454V14.4164C196.032 14.0279 196.308 13.9465 196.541 13.9465H196.616C197.181 13.9465 197.607 13.5214 197.607 12.958V12.8827C197.607 12.5471 197.704 12.4505 198.041 12.4505H198.116C198.681 12.4505 199.107 12.0254 199.107 11.4619V11.3867C199.107 10.8233 198.681 10.3981 198.116 10.3981H198.041C197.476 10.3981 197.05 10.8233 197.05 11.3867V11.4619C197.05 11.7976 196.953 11.8942 196.616 11.8942H196.541C195.976 11.8942 195.55 12.3193 195.55 12.8827V12.958C195.55 13.1899 195.468 13.4655 195.079 13.4655H190.579C190.19 13.4655 190.108 13.1899 190.108 12.958V12.8827C190.108 12.3193 189.682 11.8942 189.117 11.8942H189.042C188.809 11.8942 188.533 11.8128 188.533 11.4243V3.94306C188.533 3.55455 188.809 3.47319 189.042 3.47319H189.117C189.682 3.47319 190.108 3.04807 190.108 2.48464V2.40938C190.108 2.17852 190.19 1.90188 190.579 1.90188H195.079C195.468 1.90188 195.55 2.1775 195.55 2.40938V2.48464C195.55 3.04807 195.976 3.47319 196.541 3.47319H196.616C196.953 3.47319 197.05 3.56981 197.05 3.90543V3.98069C197.05 4.54412 197.476 4.96924 198.041 4.96924H198.116C198.681 4.96924 199.107 4.54412 199.107 3.98069V3.90543C199.107 3.342 198.681 2.91688 198.116 2.91688Z"
     fill="#E4E1DA"
     id="path283"
     style="fill:#ffffff" />
  <path
     d="M210.198 4.04657e-05H201.125C200.56 4.04657e-05 200.208 0.349898 200.208 0.914349V0.989609C200.208 1.55304 200.559 1.90392 201.125 1.90392H204.162C204.478 1.90392 204.708 2.13275 204.708 2.44803V14.453C204.708 15.0165 205.058 15.3673 205.624 15.3673H205.7C206.265 15.3673 206.616 15.0175 206.616 14.453V2.44701C206.616 2.13173 206.846 1.9029 207.163 1.9029H210.2C210.765 1.9029 211.117 1.55304 211.117 0.988592V0.913332C211.117 0.349898 210.766 -0.000976562 210.2 -0.000976562L210.198 4.04657e-05Z"
     fill="#E4E1DA"
     id="path285"
     style="fill:#ffffff" />
  <path
     d="M214.104 0H214.03C213.523 0 213.113 0.40935 213.113 0.914308V14.452C213.113 14.9569 213.523 15.3663 214.03 15.3663H214.104C214.61 15.3663 215.021 14.9569 215.021 14.452V0.914308C215.021 0.40935 214.61 0 214.104 0Z"
     fill="#E4E1DA"
     id="path287"
     style="fill:#ffffff" />
  <path
     d="M227.524 0H227.448C226.883 0 226.531 0.349858 226.531 0.914308V2.44799C226.531 2.76327 226.302 2.9921 225.985 2.9921H225.947C225.382 2.9921 225.031 3.34195 225.031 3.90641V6.93613C225.031 7.25141 224.801 7.48126 224.485 7.48126H224.447C223.883 7.48126 223.531 7.83112 223.531 8.39557V11.4253C223.531 11.7406 223.301 11.9694 222.985 11.9694C222.669 11.9694 222.44 11.7406 222.44 11.4253V8.39557C222.44 7.83213 222.089 7.48126 221.523 7.48126H221.486C221.17 7.48126 220.94 7.25243 220.94 6.93613V3.90641C220.94 3.34297 220.589 2.9921 220.024 2.9921H219.986C219.67 2.9921 219.44 2.76327 219.44 2.44799V0.914308C219.44 0.350875 219.09 0 218.524 0H218.448C217.883 0 217.532 0.349858 217.532 0.914308V2.4846C217.532 3.04803 217.882 3.39891 218.448 3.39891H218.486C218.802 3.39891 219.032 3.62774 219.032 3.94302V6.97274C219.032 7.53618 219.382 7.88705 219.948 7.88705H219.986C220.302 7.88705 220.532 8.11588 220.532 8.43116V11.4609C220.532 12.0243 220.883 12.3752 221.449 12.3752H221.487C221.803 12.3752 222.032 12.604 222.032 12.9193V14.453C222.032 15.0164 222.383 15.3673 222.949 15.3673H223.024C223.589 15.3673 223.941 15.0174 223.941 14.453V12.9193C223.941 12.604 224.17 12.3752 224.487 12.3752H224.525C225.09 12.3752 225.442 12.0253 225.442 11.4609V8.43116C225.442 8.11588 225.671 7.88705 225.987 7.88705H226.025C226.59 7.88705 226.941 7.5372 226.941 6.97274V3.94302C226.941 3.62774 227.171 3.39891 227.487 3.39891H227.525C228.089 3.39891 228.441 3.04905 228.441 2.4846V0.914308C228.441 0.350875 228.09 0 227.525 0L227.524 0Z"
     fill="#E4E1DA"
     id="path289"
     style="fill:#ffffff" />
  <path
     d="M239.084 0.000121397H231.548C230.986 0.000121397 230.594 0.391677 230.594 0.951043V14.4155C230.594 14.9759 230.987 15.3664 231.548 15.3664H239.084C239.621 15.3664 239.963 15.0511 239.997 14.5365C239.999 14.509 240 14.4816 240 14.4521V14.3768C240 14.3484 239.999 14.3199 239.997 14.2924C239.963 13.7788 239.621 13.4625 239.084 13.4625H233.048C232.732 13.4625 232.502 13.2337 232.502 12.9174V8.42925C232.502 8.11397 232.732 7.88514 233.048 7.88514H237.585C238.121 7.88514 238.464 7.56986 238.497 7.05525C238.499 7.02779 238.5 7.00033 238.5 6.97083V6.89557C238.5 6.8671 238.499 6.83862 238.497 6.81116C238.464 6.29756 238.121 5.98126 237.585 5.98126H233.048C232.732 5.98126 232.502 5.75243 232.502 5.43715V2.44506C232.502 2.12978 232.732 1.90095 233.048 1.90095H239.084C239.621 1.90095 239.963 1.58567 239.997 1.07105C239.999 1.04359 240 1.01613 240 0.986639V0.911379C240 0.882902 239.999 0.854425 239.997 0.826965C239.963 0.313366 239.621 -0.00292969 239.084 -0.00292969V0.000121397Z"
     fill="#E4E1DA"
     id="path291"
     style="fill:#ffffff" />
</svg>
