<svg class="d-block w-100 h-auto d-none d-md-block" width="178" height="32" viewBox="0 0 1320 147" fill="none" xmlns="http://www.w3.org/2000/svg"><path d="M.00098 4.64002H66.5373c13.7452 0 24.5133 3.559 32.2928 10.67698 7.7799 7.1181 11.6689 16.8097 11.6689 29.0634 0 5.7964-.946 10.9436-2.817 15.4185-1.882 4.4864-4.609 8.2773-8.1675 11.3726-3.5703 3.0953-7.8821 5.5646-12.9354 7.4194 4.0152 1.8433 7.3004 4.6488 9.8213 8.4049 2.5324 3.756 4.7686 9.0656 6.7076 15.9172l11.669 40.934H86.5677l-9.73-34.013c-1.4259-5.275-2.9544-9.298-4.5742-12.0685-1.6198-2.7707-3.8555-4.811-6.7072-6.1326-2.8518-1.3216-6.6845-1.9824-11.4754-1.9824H26.2596v54.1855H.00098V4.62842v.0116ZM62.8414 67.9139c6.7415 0 12.0001-1.681 15.7643-5.0429 3.7643-3.3619 5.6464-8.5323 5.6464-15.5228 0-6.9905-1.8821-11.8944-5.6464-15.1288-3.7642-3.2344-9.0114-4.8458-15.7643-4.8458H26.271v40.5403h36.5818-.0114Z" fill="#FAFAF5"></path><path d="M173.351 147c-10.38 0-19.654-2.272-27.822-6.817-8.167-4.544-14.498-10.839-18.969-18.884-4.472-8.034-6.707-17.274-6.707-27.6842 0-10.4104 2.27-19.6731 6.809-27.7766 4.54-8.1034 10.86-14.4678 18.97-19.0818 8.099-4.614 17.418-6.921 27.924-6.921s19.392 2.307 27.434 6.921c8.041 4.614 14.304 10.9784 18.775 19.0818 4.472 8.1035 6.708 17.2966 6.708 27.5795 0 10.2833-2.236 19.6733-6.708 27.7763-4.471 8.104-10.768 14.433-18.867 18.989-8.11 4.545-17.281 6.817-27.524 6.817h-.023Zm0-21.945c5.315 0 10.015-1.287 14.11-3.861 4.084-2.573 7.266-6.225 9.536-10.978 2.27-4.742 3.399-10.3527 3.399-16.8099 0-6.4572-1.14-11.8595-3.399-16.6126-2.27-4.7415-5.452-8.4396-9.536-11.0712-4.084-2.6315-8.783-3.9531-14.11-3.9531s-10.244 1.3216-14.396 3.9531c-4.152 2.6432-7.357 6.3297-9.627 11.0712-2.27 4.7415-3.399 10.2829-3.399 16.6126 0 6.3297 1.129 12.0569 3.399 16.8099 2.27 4.741 5.475 8.405 9.627 10.978 4.152 2.574 8.955 3.861 14.396 3.861Z" fill="#FAFAF5"></path><path d="M288.537 147c-10.38 0-19.654-2.272-27.821-6.817-8.167-4.544-14.498-10.839-18.97-18.884-4.471-8.034-6.707-17.274-6.707-27.6842 0-10.4104 2.27-19.6731 6.81-27.7766 4.54-8.1034 10.859-14.4678 18.97-19.0818 8.098-4.614 17.418-6.921 27.924-6.921 10.505 0 19.391 2.307 27.433 6.921 8.042 4.614 14.304 10.9784 18.776 19.0818 4.471 8.1035 6.707 17.2966 6.707 27.5795 0 10.2833-2.236 19.6733-6.707 27.7763-4.472 8.104-10.768 14.433-18.867 18.989-8.11 4.545-17.282 6.817-27.525 6.817h-.023Zm0-21.945c5.316 0 10.016-1.287 14.111-3.861 4.083-2.573 7.266-6.225 9.536-10.978 2.27-4.742 3.399-10.3527 3.399-16.8099 0-6.4572-1.141-11.8595-3.399-16.6126-2.27-4.7415-5.453-8.4396-9.536-11.0712-4.084-2.6315-8.784-3.9531-14.111-3.9531s-10.243 1.3216-14.395 3.9531c-4.152 2.6432-7.358 6.3297-9.628 11.0712-2.27 4.7415-3.399 10.2829-3.399 16.6126 0 6.3297 1.129 12.0569 3.399 16.8099 2.27 4.741 5.476 8.405 9.628 10.978 4.152 2.574 8.954 3.861 14.395 3.861Z" fill="#FAFAF5"></path><path d="M392.43 146.409c-11.03 0-18.901-2.573-23.635-7.709-4.734-5.135-7.106-12.52-7.106-22.142V63.961h-15.171V43.0011h15.171V16.4998h25.677v26.5013h20.041V63.961h-20.041v51.217c0 3.293.969 5.669 2.92 7.118 1.95 1.449 4.734 2.18 8.361 2.18 2.076 0 4.928-.267 8.555-.789v20.566c-5.065 1.449-9.992 2.18-14.783 2.18l.011-.024Z" fill="#FAFAF5"></path><path d="M457.804 147c-12.456 0-22.506-2.863-30.16-8.602-7.654-5.738-12.456-13.738-14.395-24.02l23.932-4.545c1.038 5.669 3.399 10.016 7.106 13.054 3.696 3.037 8.339 4.544 13.917 4.544 5.19 0 9.307-1.113 12.353-3.362 3.046-2.237 4.574-5.008 4.574-8.3 0-3.026-1.197-5.205-3.604-6.527s-6.776-2.771-13.13-4.347c-1.163-.267-2.27-.499-3.308-.696-1.038-.197-2.144-.429-3.308-.695-8.167-1.983-14.726-4.116-19.654-6.423-4.927-2.3069-8.76-5.437-11.475-9.3902s-4.084-9.1004-4.084-15.4185c0-6.3181 1.654-12.1261 4.962-17.0067 3.308-4.8806 8.042-8.6715 14.202-11.3726 6.16-2.7012 13.266-4.0576 21.308-4.0576 11.281 0 20.361 2.5737 27.24 7.7093 6.878 5.1356 11.406 12.3928 13.619 21.7482l-22.962 4.9386c-1.3-4.614-3.399-8.2425-6.319-10.8741-2.92-2.6316-6.776-3.9532-11.578-3.9532-4.278 0-7.916.9854-10.894 2.9678-2.988 1.9824-4.471 4.5444-4.471 7.7092 0 3.1649 1.392 5.1705 4.186 6.4225 2.784 1.252 7.882 2.6664 15.274 4.2546.388.1275.742.2318 1.072.3014.32.0695.685.1623 1.073.3014 8.954 1.9824 16.049 4.0923 21.308 6.3297 5.258 2.2374 9.273 5.3675 12.068 9.3902 2.783 4.023 4.186 9.332 4.186 15.917 0 6.585-1.745 12.857-5.247 17.992-3.502 5.136-8.464 9.101-14.886 11.86-6.422 2.77-14.042 4.15-22.859 4.15h-.046Z" fill="#FAFAF5"></path><path d="M550.996 146.409c-11.031 0-18.902-2.573-23.635-7.709-4.734-5.135-7.107-12.52-7.107-22.142V63.961h-15.171V43.0011h15.171V16.4998h25.677v26.5013h20.042V63.961h-20.042v51.217c0 3.293.97 5.669 2.92 7.118 1.951 1.449 4.734 2.18 8.361 2.18 2.076 0 4.928-.267 8.556-.789v20.566c-5.065 1.449-9.993 2.18-14.784 2.18l.012-.024Z" fill="#FAFAF5"></path><path d="M625.703 147c-10.38 0-19.654-2.272-27.821-6.817-8.167-4.544-14.498-10.839-18.97-18.884-4.471-8.034-6.707-17.274-6.707-27.6842 0-10.4104 2.27-19.6731 6.81-27.7766 4.54-8.1034 10.859-14.4678 18.97-19.0818 8.098-4.614 17.418-6.921 27.924-6.921 10.505 0 19.391 2.307 27.433 6.921 8.042 4.614 14.304 10.9784 18.776 19.0818 4.471 8.1035 6.707 17.2966 6.707 27.5795 0 10.2833-2.236 19.6733-6.707 27.7763-4.472 8.104-10.768 14.433-18.867 18.989-8.11 4.545-17.282 6.817-27.525 6.817h-.023Zm0-21.945c5.316 0 10.016-1.287 14.111-3.861 4.083-2.573 7.266-6.225 9.536-10.978 2.27-4.742 3.399-10.3527 3.399-16.8099 0-6.4572-1.141-11.8595-3.399-16.6126-2.27-4.7415-5.453-8.4396-9.536-11.0712-4.084-2.6315-8.784-3.9531-14.111-3.9531s-10.243 1.3216-14.395 3.9531c-4.152 2.6432-7.358 6.3297-9.628 11.0712-2.27 4.7415-3.399 10.2829-3.399 16.6126 0 6.3297 1.129 12.0569 3.399 16.8099 2.27 4.741 5.476 8.405 9.628 10.978 4.152 2.574 8.954 3.861 14.395 3.861Z" fill="#FAFAF5"></path><path d="M740.693 146.803c-10.38 0-19.654-2.272-27.821-6.817-8.168-4.544-14.464-10.839-18.867-18.884-4.415-8.034-6.616-17.204-6.616-27.4871 0-10.2829 2.235-19.3138 6.707-27.4867 4.471-8.173 10.734-14.5954 18.776-19.2789 8.041-4.6836 17.315-7.0253 27.821-7.0253 8.304 0 15.764 1.5186 22.369 4.5444 6.616 3.0373 12 7.3499 16.152 12.9492 4.152 5.5994 6.878 12.1609 8.167 19.6731l-24.125 3.3619c-1.552-5.5414-4.221-9.9466-7.974-13.2506-3.764-3.2924-8.623-4.9386-14.589-4.9386-5.452 0-10.278 1.3796-14.498 4.1503-4.221 2.7707-7.392 6.5267-9.536 11.2682-2.145 4.7415-3.206 9.9583-3.206 15.6156 0 5.6573 1.095 11.0715 3.308 15.8245 2.202 4.741 5.35 8.497 9.434 11.268 4.084 2.771 8.92 4.15 14.498 4.15 5.966 0 10.859-1.611 14.692-4.845 3.821-3.235 6.456-7.547 7.882-12.95l24.514 3.559c-1.426 7.118-4.118 13.378-8.077 18.781-3.958 5.402-9.239 9.726-15.855 12.949-6.616 3.234-14.338 4.846-23.156 4.846v.023Z" fill="#FAFAF5"></path><path d="M800.81.47742h25.095V78.7756l36.194-35.7871h31.905l-41.635 41.9198 42.411 58.9267h-30.16l-29.578-41.526-9.148 8.892v32.622h-25.095V.46582l.011.0116Z" fill="#FAFAF5"></path><path d="M911.655 4.63989h26.27V120.314h65.945v23.533h-92.215V4.63989Z" fill="#FAFAF5"></path><path d="M1043.69 146.015c-6.49 0-12.16-1.16-17.02-3.455-4.86-2.295-8.66-5.634-11.38-9.982-2.73-4.347-4.09-9.355-4.09-15.024 0-8.834 3.15-15.882 9.44-21.1568 6.28-5.2748 15.34-8.7643 27.13-10.48l21.21-3.559c3.11-.6608 5.28-1.5766 6.51-2.7707 1.23-1.1825 1.85-2.7012 1.85-4.5444h2.92V113.01c-2.21 10.549-6.58 18.687-13.13 24.426-6.55 5.738-14.37 8.602-23.44 8.602v-.023Zm15.17-106.1795c8.82 0 16.54 1.5535 23.16 4.6488 6.61 3.0953 11.63 7.4194 15.08 12.9492 3.43 5.5414 5.15 11.9291 5.15 19.1746v67.2269h-24.9V75.0199c0-3.9532-1.62-7.2224-4.86-9.7844-3.24-2.5736-7.72-3.8604-13.42-3.8604-5.71 0-10.05 1.3796-13.43 4.1502-3.38 2.7707-5.51 6.5964-6.42 11.4654l-25.49-2.9678c1.56-7.2455 4.32-13.3782 8.27-18.3863 3.96-5.0081 9.08-8.9033 15.37-11.6624 6.28-2.7707 13.46-4.1502 21.5-4.1502l-.01.0115Zm-6.62 85.8225c5.06 0 9.51-1.31 13.33-3.954 3.82-2.631 6.74-6.155 8.76-10.572 2.01-4.417 3.01-8.996 3.01-13.7379v-2.3765c-1.04.6608-2.34 1.1825-3.89 1.5766-1.55.3942-3.31.7304-5.26.9854l-12.84 2.1795c-5.06.9279-9.28 2.4109-12.65 4.4519-3.38 2.04-5.06 5.24-5.06 9.587 0 3.687 1.33 6.596 4 8.695 2.65 2.11 6.19 3.165 10.6 3.165Z" fill="#FAFAF5"></path><path d="M1178.32 147c-7.01 0-13.33-1.519-18.97-4.544-5.65-3.026-10.61-7.188-14.89-12.463v13.842h-25.09V.47778h25.09V57.2249c4.28-5.6689 9.24-9.9815 14.89-12.9492 5.64-2.9678 12.03-4.4517 19.16-4.4517 9.08 0 17.16 2.3069 24.23 6.9209 7.07 4.614 12.58 10.9785 16.54 19.0819 3.96 8.1034 5.93 17.3661 5.93 27.7765 0 10.4107-1.97 19.6497-5.93 27.6837-3.96 8.046-9.47 14.34-16.54 18.885-7.07 4.544-15.21 6.816-24.42 6.816V147Zm-6.42-22.548c5.45 0 10.2-1.252 14.3-3.756 4.08-2.504 7.27-6.098 9.54-10.782 2.27-4.683 3.4-10.1201 3.4-16.3107 0-9.3554-2.47-16.8676-7.4-22.5365-4.92-5.669-11.54-8.4976-19.84-8.4976-8.31 0-14.96 2.8402-19.94 8.4976-5 5.6689-7.5 13.1811-7.5 22.5365 0 6.2022 1.13 11.6397 3.4 16.3107 2.27 4.684 5.48 8.278 9.63 10.782 4.15 2.504 8.95 3.756 14.39 3.756h.02Z" fill="#FAFAF5"></path><path d="M1276.96 147c-12.45 0-22.5-2.863-30.16-8.602-7.65-5.738-12.45-13.738-14.39-24.02l23.93-4.545c1.04 5.669 3.4 10.016 7.1 13.054 3.7 3.037 8.34 4.544 13.92 4.544 5.19 0 9.31-1.113 12.35-3.362 3.05-2.237 4.58-5.008 4.58-8.3 0-3.026-1.2-5.205-3.61-6.527-2.4-1.322-6.77-2.771-13.12-4.347-1.17-.267-2.27-.499-3.31-.696-1.04-.197-2.15-.429-3.31-.695-8.17-1.983-14.73-4.116-19.65-6.423-4.93-2.3069-8.77-5.437-11.48-9.3902-2.72-3.9532-4.08-9.1004-4.08-15.4185 0-6.3181 1.65-12.1261 4.96-17.0067 3.31-4.8806 8.04-8.6715 14.2-11.3726 6.16-2.7012 13.27-4.0576 21.31-4.0576 11.28 0 20.36 2.5737 27.24 7.7093 6.88 5.1356 11.4 12.3928 13.62 21.7482l-22.96 4.9386c-1.31-4.614-3.4-8.2425-6.32-10.8741-2.92-2.6316-6.78-3.9532-11.58-3.9532-4.28 0-7.92.9854-10.9 2.9678-2.98 1.9824-4.47 4.5444-4.47 7.7092 0 3.1649 1.39 5.1705 4.19 6.4225 2.78 1.252 7.88 2.6664 15.27 4.2546.39.1275.74.2318 1.08.3014.31.0695.68.1623 1.07.3014 8.95 1.9824 16.05 4.0923 21.31 6.3297 5.25 2.2374 9.27 5.3675 12.06 9.3902 2.79 4.023 4.19 9.332 4.19 15.917 0 6.585-1.75 12.857-5.25 17.992-3.5 5.136-8.46 9.101-14.88 11.86-6.43 2.77-14.04 4.15-22.86 4.15h-.05Z" fill="#FAFAF5"></path></svg>
