<svg width="178" height="32" viewBox="0 0 178 32" fill="none"><g clip-path="url(#clip0_1854_2491)"><path d="M32.4062 25.8855V4.49928H41.4312C43.0299 4.49928 44.396 4.74444 45.5005 5.23475C46.605 5.72506 47.4479 6.40284 48.0147 7.2681C48.5815 8.13335 48.8576 9.14282 48.8576 10.2965C48.8576 11.1906 48.6977 11.9837 48.3635 12.7048C48.0292 13.4258 47.5351 14.0171 46.8666 14.5074C46.1981 14.9977 45.3987 15.3294 44.4396 15.5169V15.7043C45.1662 15.8774 45.7766 16.1658 46.2707 16.5696C46.7648 16.9734 47.1718 17.4637 47.4915 18.0261C47.8257 18.6029 48.1164 19.2951 48.378 20.1316L50.2237 25.8711H45.6313L44.0036 20.7661C43.771 19.9441 43.4949 19.3096 43.1752 18.8481C42.8555 18.3866 42.4485 18.0549 41.9254 17.853C41.4022 17.6512 40.7337 17.5358 39.8907 17.5358H36.8969V25.8567H32.4062V25.8855ZM40.661 14.118C41.4167 14.118 42.0707 14.0027 42.6375 13.7863C43.1897 13.57 43.6257 13.2239 43.9309 12.7625C44.2361 12.301 44.396 11.7242 44.396 11.0608C44.396 10.383 44.2361 9.8206 43.9309 9.37355C43.6257 8.9265 43.1897 8.59482 42.6375 8.39293C42.0852 8.19104 41.4167 8.07567 40.661 8.07567H36.8969V14.1325H40.661V14.118Z" fill="#FAF9F5"></path><path d="M59.1198 26.246C57.4921 26.246 56.0243 25.8855 54.7163 25.1789C53.3938 24.4722 52.3619 23.4628 51.6062 22.1649C50.8505 20.867 50.4727 19.3817 50.4727 17.7088C50.4727 16.0504 50.8505 14.5651 51.5917 13.2672C52.3329 11.9693 53.3793 10.9454 54.6872 10.2244C56.0097 9.48891 57.4921 9.12839 59.1489 9.12839C60.8056 9.12839 62.288 9.48891 63.5959 10.2244C64.9039 10.9454 65.9358 11.9693 66.6769 13.2672C67.4181 14.5651 67.796 16.0504 67.796 17.7232C67.796 19.3817 67.4181 20.867 66.6624 22.1649C65.9067 23.4628 64.8748 24.4722 63.5669 25.1933C62.2444 25.8855 60.762 26.246 59.1198 26.246ZM59.1198 22.684C59.9482 22.684 60.6893 22.4821 61.3433 22.0784C61.9973 21.6746 62.5205 21.0977 62.9129 20.3479C63.2908 19.598 63.4942 18.7183 63.4942 17.7088C63.4942 16.7138 63.3053 15.8341 62.9274 15.0698C62.5496 14.3199 62.0264 13.7287 61.3724 13.3249C60.7184 12.9211 59.9627 12.7048 59.1343 12.7048C58.3059 12.7048 57.5648 12.9067 56.9108 13.3249C56.2568 13.7287 55.7336 14.3199 55.3557 15.0698C54.9779 15.8197 54.789 16.7138 54.789 17.7232C54.789 18.7183 54.9779 19.598 55.3703 20.3479C55.7481 21.0977 56.2713 21.6746 56.9253 22.0784C57.5502 22.4821 58.2914 22.684 59.1198 22.684Z" fill="#FAF9F5"></path><path d="M77.6628 26.246C76.0351 26.246 74.5672 25.8855 73.2593 25.1789C71.9368 24.4722 70.9049 23.4628 70.1492 22.1649C69.3935 20.867 69.0156 19.3817 69.0156 17.7088C69.0156 16.0504 69.3935 14.5651 70.1347 13.2672C70.8758 11.9693 71.9222 10.9454 73.2302 10.2244C74.5527 9.48891 76.0351 9.12839 77.6918 9.12839C79.3486 9.12839 80.8309 9.48891 82.1389 10.2244C83.4469 10.9454 84.4787 11.9693 85.2199 13.2672C85.9611 14.5651 86.3389 16.0504 86.3389 17.7232C86.3389 19.3817 85.9611 20.867 85.2054 22.1649C84.4497 23.4628 83.4178 24.4722 82.1098 25.1933C80.7873 25.8855 79.305 26.246 77.6628 26.246ZM77.6628 22.684C78.4911 22.684 79.2323 22.4821 79.8863 22.0784C80.5403 21.6746 81.0635 21.0977 81.4559 20.3479C81.8337 19.598 82.0372 18.7183 82.0372 17.7088C82.0372 16.7138 81.8482 15.8341 81.4704 15.0698C81.0925 14.3199 80.5694 13.7287 79.9154 13.3249C79.2614 12.9211 78.5057 12.7048 77.6773 12.7048C76.8489 12.7048 76.1077 12.9067 75.4537 13.3249C74.7998 13.7287 74.2766 14.3199 73.8987 15.0698C73.5209 15.8197 73.3319 16.7138 73.3319 17.7232C73.3319 18.7183 73.5209 19.598 73.9132 20.3479C74.2911 21.0977 74.8143 21.6746 75.4683 22.0784C76.0932 22.4821 76.8344 22.684 77.6628 22.684Z" fill="#FAF9F5"></path><path d="M95.2047 26.1451C93.8241 26.1451 92.7196 25.9288 91.9203 25.4961C91.1065 25.0635 90.5397 24.4722 90.2199 23.7512C89.8857 23.0157 89.7258 22.1505 89.7258 21.1554V12.8057H86.8047V9.44565H89.7258V5.33569H93.984V9.44565H97.8207V12.7913H93.984V20.9247C93.984 21.4871 94.1584 21.9197 94.5072 22.2226C94.856 22.5254 95.4227 22.6696 96.2075 22.6696C96.7016 22.6696 97.2248 22.6119 97.7771 22.511V25.7413C96.9778 26.0153 96.1203 26.1451 95.2047 26.1451Z" fill="#FAF9F5"></path><path d="M105.903 26.2604C104.072 26.2604 102.546 25.8566 101.325 25.0491C100.104 24.2415 99.2758 23.0878 98.8398 21.5736L102.328 20.4055C102.618 21.2564 103.069 21.9197 103.665 22.3812C104.261 22.8427 105.002 23.0734 105.859 23.0734C106.731 23.0734 107.385 22.9148 107.836 22.6119C108.286 22.3091 108.504 21.8909 108.504 21.4006C108.504 20.9968 108.403 20.6651 108.199 20.4344C107.996 20.1892 107.647 19.9873 107.167 19.7999C106.688 19.6268 105.99 19.4393 105.104 19.2374C103.708 18.9346 102.604 18.5885 101.805 18.1991C101.005 17.8098 100.409 17.3195 100.032 16.6994C99.6537 16.0793 99.4502 15.315 99.4502 14.3632C99.4502 13.3105 99.7264 12.4019 100.264 11.6088C100.802 10.8156 101.572 10.21 102.589 9.76291C103.607 9.33028 104.769 9.11397 106.092 9.11397C107.254 9.11397 108.286 9.2726 109.187 9.60428C110.088 9.93596 110.815 10.4263 111.396 11.0752C111.978 11.7242 112.385 12.5173 112.603 13.4402L109.144 14.5939C108.897 13.8729 108.504 13.3105 107.996 12.8922C107.472 12.4885 106.848 12.2721 106.121 12.2721C105.612 12.2721 105.176 12.3298 104.798 12.4596C104.421 12.5894 104.13 12.7769 103.926 13.022C103.723 13.2672 103.621 13.5556 103.621 13.8873C103.621 14.2622 103.708 14.5651 103.897 14.7814C104.072 14.9977 104.406 15.1852 104.871 15.3438C105.336 15.5024 106.019 15.6755 106.906 15.863C108.373 16.1802 109.536 16.5263 110.365 16.9157C111.193 17.2906 111.818 17.7954 112.21 18.401C112.603 19.0211 112.806 19.7999 112.806 20.7805C112.806 21.8909 112.544 22.8427 112.007 23.6647C111.469 24.4722 110.684 25.1068 109.652 25.5682C108.621 26.0297 107.371 26.2604 105.903 26.2604Z" fill="#FAF9F5"></path><path d="M121.783 26.1451C120.402 26.1451 119.298 25.9288 118.498 25.4961C117.685 25.0635 117.118 24.4722 116.798 23.7512C116.464 23.0157 116.304 22.1505 116.304 21.1554V12.8057H113.383V9.44565H116.304V5.33569H120.562V9.44565H124.399V12.7913H120.562V20.9247C120.562 21.4871 120.737 21.9197 121.085 22.2226C121.434 22.5254 122.001 22.6696 122.786 22.6696C123.28 22.6696 123.803 22.6119 124.355 22.511V25.7413C123.556 26.0153 122.698 26.1451 121.783 26.1451Z" fill="#FAF9F5"></path><path d="M134.081 26.246C132.453 26.246 130.985 25.8855 129.677 25.1789C128.355 24.4722 127.323 23.4628 126.567 22.1649C125.811 20.867 125.434 19.3817 125.434 17.7088C125.434 16.0504 125.811 14.5651 126.553 13.2672C127.294 11.9693 128.34 10.9454 129.648 10.2244C130.971 9.48891 132.453 9.12839 134.11 9.12839C135.767 9.12839 137.249 9.48891 138.557 10.2244C139.865 10.9454 140.897 11.9693 141.638 13.2672C142.379 14.5651 142.757 16.0504 142.757 17.7232C142.757 19.3817 142.379 20.867 141.623 22.1649C140.868 23.4628 139.836 24.4722 138.528 25.1933C137.205 25.8855 135.737 26.246 134.081 26.246ZM134.081 22.684C134.909 22.684 135.65 22.4821 136.304 22.0784C136.958 21.6746 137.481 21.0977 137.874 20.3479C138.252 19.598 138.455 18.7183 138.455 17.7088C138.455 16.7138 138.266 15.8341 137.888 15.0698C137.511 14.3199 136.987 13.7287 136.333 13.3249C135.679 12.9211 134.924 12.7048 134.095 12.7048C133.267 12.7048 132.526 12.9067 131.872 13.3249C131.218 13.7287 130.695 14.3199 130.317 15.0698C129.939 15.8197 129.75 16.7138 129.75 17.7232C129.75 18.7183 129.939 19.598 130.331 20.3479C130.709 21.0977 131.232 21.6746 131.886 22.0784C132.526 22.4821 133.252 22.684 134.081 22.684Z" fill="#FAF9F5"></path><path d="M153.004 26.2604C151.463 26.2604 150.039 25.9432 148.731 25.2942C147.408 24.6453 146.362 23.6791 145.563 22.3956C144.763 21.1122 144.371 19.5691 144.371 17.7809C144.371 16.0072 144.749 14.4785 145.519 13.1662C146.289 11.8539 147.321 10.8589 148.629 10.1523C149.937 9.44565 151.391 9.09955 152.975 9.09955C154.283 9.09955 155.46 9.3447 156.506 9.83501C157.553 10.3253 158.439 10.9887 159.137 11.8395C159.834 12.6904 160.343 13.6566 160.633 14.7381L156.957 15.7909C156.782 15.1852 156.506 14.6516 156.157 14.1901C155.809 13.7287 155.373 13.3537 154.864 13.0797C154.355 12.8057 153.759 12.6759 153.105 12.6759C152.233 12.6759 151.449 12.8922 150.766 13.3105C150.083 13.7287 149.545 14.3199 149.167 15.0842C148.789 15.8485 148.586 16.7282 148.586 17.7088C148.586 18.7327 148.789 19.6124 149.196 20.3623C149.603 21.1122 150.155 21.689 150.838 22.0784C151.521 22.4677 152.263 22.6696 153.076 22.6696C153.73 22.6696 154.312 22.5398 154.835 22.2803C155.358 22.0207 155.794 21.6602 156.157 21.2275C156.521 20.7805 156.797 20.2902 156.986 19.7566L160.648 20.8382C160.386 21.8044 159.921 22.6985 159.253 23.5349C158.584 24.3569 157.712 25.0202 156.637 25.525C155.576 26.0009 154.37 26.2604 153.004 26.2604Z" fill="#FAF9F5"></path><path d="M162.727 25.8855V4.49928H166.985V16.0072L173.67 9.44566H178.597L171.475 16.2812L178.553 25.8855H173.583L168.453 18.8481L166.97 20.2325V25.8855H162.727Z" fill="#FAF9F5"></path><path d="M13.1791 8.46503C15.3943 8.46503 17.1902 6.68304 17.1902 4.48486C17.1902 2.28667 15.3943 0.504684 13.1791 0.504684C10.9638 0.504684 9.16797 2.28667 9.16797 4.48486C9.16797 6.68304 10.9638 8.46503 13.1791 8.46503Z" fill="#FAF9F5"></path><path d="M24.3264 16.7859C22.408 15.6899 19.9519 16.3388 18.8474 18.2424C18.4696 18.8913 18.2952 19.6124 18.3097 20.319C18.3533 22.0784 16.7547 22.9869 15.2432 22.0784C15.1851 22.0495 15.127 22.0063 15.0543 21.9774C13.5284 21.1266 13.5284 19.324 15.0543 18.4876C16.3042 17.8098 17.1616 16.4975 17.1616 14.9833C17.1616 14.9544 17.1616 14.9256 17.1616 14.8968C17.118 13.1374 18.7166 12.2289 20.2281 13.1374C21.4343 13.8729 23.0039 13.9306 24.3118 13.1807C26.2302 12.0847 26.8842 9.64754 25.7797 7.74398C24.6752 5.84042 22.2191 5.19148 20.3007 6.28747C18.9928 7.03736 18.2661 8.42177 18.2952 9.8206C18.3388 11.5799 16.7401 12.4885 15.2432 11.5799C14.6329 11.205 13.9207 10.9887 13.1505 10.9887C12.3802 10.9887 11.6681 11.205 11.0577 11.5655C9.54632 12.4596 7.96222 11.5511 8.00582 9.80617C8.03489 8.39293 7.30824 7.02294 6.00027 6.27305C4.08191 5.17706 1.62584 5.84042 0.521333 7.74398C-0.583173 9.64754 0.0853439 12.0847 2.0037 13.1807C3.31167 13.9306 4.88123 13.8584 6.08747 13.1374C7.5989 12.2289 9.18299 13.1374 9.13939 14.8968C9.13939 14.9256 9.13939 14.9544 9.13939 14.9833C9.13939 16.4975 9.98231 17.8098 11.2467 18.4876C12.7726 19.3384 12.7726 21.141 11.2467 21.9774C11.1885 22.0063 11.1304 22.0495 11.0723 22.0784C9.56085 22.9725 7.97675 22.0639 8.02035 20.319C8.03489 19.6124 7.86049 18.8913 7.48263 18.228C6.37813 16.3244 3.92205 15.6755 2.0037 16.7715C0.0853439 17.8963 -0.56864 20.3334 0.535866 22.237C1.64037 24.1406 4.09645 24.7895 6.0148 23.6935C6.04387 23.6791 6.0584 23.6647 6.08747 23.6502C7.5989 22.7417 9.18299 23.6502 9.13939 25.4096C9.13939 25.4384 9.13939 25.4673 9.13939 25.5105C9.13939 27.7025 10.9415 29.4907 13.1505 29.4907C15.3595 29.4907 17.1616 27.7025 17.1616 25.5105C17.1616 25.4817 17.1616 25.4529 17.1616 25.424C17.118 23.6647 18.7166 22.7562 20.2281 23.6647C20.2571 23.6791 20.2862 23.6935 20.3153 23.7224C22.2336 24.8183 24.6897 24.1694 25.7942 22.2658C26.8987 20.319 26.2447 17.8819 24.3264 16.7859Z" fill="#FAF9F5"></path></g><defs><clipPath id="clip0_1854_2491"><rect width="178" height="32" fill="white"></rect></clipPath></defs></svg>
